<mxfile host="Electron" agent="Mozilla/5.0 (Windows NT 10.0; Win64; x64) AppleWebKit/537.36 (KHTML, like Gecko) draw.io/24.7.17 Chrome/128.0.6613.36 Electron/32.0.1 Safari/537.36" version="24.7.17" pages="9">
  <diagram name="Page-1" id="2YBvvXClWsGukQMizWep">
    <mxGraphModel dx="1985" dy="955" grid="1" gridSize="10" guides="1" tooltips="1" connect="1" arrows="1" fold="1" page="1" pageScale="1" pageWidth="850" pageHeight="1100" math="0" shadow="0">
      <root>
        <mxCell id="0" />
        <mxCell id="1" parent="0" />
        <mxCell id="aM9ryv3xv72pqoxQDRHE-1" value="&amp;lt;&amp;lt;Interface&amp;gt;&amp;gt;&lt;div&gt;Login&lt;/div&gt;" style="shape=umlLifeline;perimeter=lifelinePerimeter;whiteSpace=wrap;html=1;container=0;dropTarget=0;collapsible=0;recursiveResize=0;outlineConnect=0;portConstraint=eastwest;newEdgeStyle={&quot;edgeStyle&quot;:&quot;elbowEdgeStyle&quot;,&quot;elbow&quot;:&quot;vertical&quot;,&quot;curved&quot;:0,&quot;rounded&quot;:0};" parent="1" vertex="1">
          <mxGeometry x="180" y="270" width="100" height="580" as="geometry" />
        </mxCell>
        <mxCell id="aM9ryv3xv72pqoxQDRHE-2" value="" style="html=1;points=[];perimeter=orthogonalPerimeter;outlineConnect=0;targetShapes=umlLifeline;portConstraint=eastwest;newEdgeStyle={&quot;edgeStyle&quot;:&quot;elbowEdgeStyle&quot;,&quot;elbow&quot;:&quot;vertical&quot;,&quot;curved&quot;:0,&quot;rounded&quot;:0};" parent="aM9ryv3xv72pqoxQDRHE-1" vertex="1">
          <mxGeometry x="45" y="70" width="10" height="110" as="geometry" />
        </mxCell>
        <mxCell id="aM9ryv3xv72pqoxQDRHE-5" value="&amp;lt;&amp;lt;Controller&amp;gt;&amp;gt;&lt;div&gt;Login&lt;/div&gt;" style="shape=umlLifeline;perimeter=lifelinePerimeter;whiteSpace=wrap;html=1;container=0;dropTarget=0;collapsible=0;recursiveResize=0;outlineConnect=0;portConstraint=eastwest;newEdgeStyle={&quot;edgeStyle&quot;:&quot;elbowEdgeStyle&quot;,&quot;elbow&quot;:&quot;vertical&quot;,&quot;curved&quot;:0,&quot;rounded&quot;:0};" parent="1" vertex="1">
          <mxGeometry x="390" y="280" width="100" height="570" as="geometry" />
        </mxCell>
        <mxCell id="aM9ryv3xv72pqoxQDRHE-6" value="&lt;span style=&quot;color: rgba(0, 0, 0, 0); font-family: monospace; font-size: 0px; text-align: start;&quot;&gt;%3CmxGraphModel%3E%3Croot%3E%3CmxCell%20id%3D%220%22%2F%3E%3CmxCell%20id%3D%221%22%20parent%3D%220%22%2F%3E%3CmxCell%20id%3D%222%22%20value%3D%22Login%22%20style%3D%22html%3D1%3BverticalAlign%3Dbottom%3BendArrow%3Dblock%3BedgeStyle%3DelbowEdgeStyle%3Belbow%3Dvertical%3Bcurved%3D0%3Brounded%3D0%3B%22%20edge%3D%221%22%20parent%3D%221%22%3E%3CmxGeometry%20x%3D%22-0.1053%22%20relative%3D%221%22%20as%3D%22geometry%22%3E%3CmxPoint%20x%3D%22205%22%20y%3D%22160%22%20as%3D%22sourcePoint%22%2F%3E%3CArray%20as%3D%22points%22%3E%3CmxPoint%20x%3D%22300%22%20y%3D%22160%22%2F%3E%3C%2FArray%3E%3CmxPoint%20x%3D%22395%22%20y%3D%22160%22%20as%3D%22targetPoint%22%2F%3E%3CmxPoint%20as%3D%22offset%22%2F%3E%3C%2FmxGeometry%3E%3C%2FmxCell%3E%3C%2Froot%3E%3C%2FmxGraphModel%3E&lt;/span&gt;" style="html=1;points=[];perimeter=orthogonalPerimeter;outlineConnect=0;targetShapes=umlLifeline;portConstraint=eastwest;newEdgeStyle={&quot;edgeStyle&quot;:&quot;elbowEdgeStyle&quot;,&quot;elbow&quot;:&quot;vertical&quot;,&quot;curved&quot;:0,&quot;rounded&quot;:0};" parent="aM9ryv3xv72pqoxQDRHE-5" vertex="1">
          <mxGeometry x="45" y="80" width="10" height="70" as="geometry" />
        </mxCell>
        <mxCell id="aM9ryv3xv72pqoxQDRHE-7" value="Enter user Name/ Password" style="html=1;verticalAlign=bottom;endArrow=block;edgeStyle=elbowEdgeStyle;elbow=vertical;curved=0;rounded=0;" parent="1" edge="1">
          <mxGeometry relative="1" as="geometry">
            <mxPoint x="245.0000000000001" y="370" as="sourcePoint" />
            <Array as="points">
              <mxPoint x="250" y="370" />
            </Array>
            <mxPoint x="435" y="370" as="targetPoint" />
          </mxGeometry>
        </mxCell>
        <mxCell id="nFVy-DhmlmmS6isC8UW5-2" value="" style="shape=umlLifeline;perimeter=lifelinePerimeter;whiteSpace=wrap;html=1;container=1;dropTarget=0;collapsible=0;recursiveResize=0;outlineConnect=0;portConstraint=eastwest;newEdgeStyle={&quot;curved&quot;:0,&quot;rounded&quot;:0};participant=umlActor;" parent="1" vertex="1">
          <mxGeometry x="110" y="270" width="20" height="580" as="geometry" />
        </mxCell>
        <mxCell id="aM9ryv3xv72pqoxQDRHE-3" value="Visit" style="html=1;verticalAlign=bottom;startArrow=oval;endArrow=block;startSize=8;edgeStyle=elbowEdgeStyle;elbow=vertical;curved=0;rounded=0;" parent="1" source="nFVy-DhmlmmS6isC8UW5-2" target="aM9ryv3xv72pqoxQDRHE-2" edge="1">
          <mxGeometry relative="1" as="geometry">
            <mxPoint x="175" y="340" as="sourcePoint" />
            <Array as="points">
              <mxPoint x="180" y="350" />
            </Array>
          </mxGeometry>
        </mxCell>
        <mxCell id="nFVy-DhmlmmS6isC8UW5-4" value="&amp;lt;&amp;lt;Entity&amp;gt;&amp;gt;&lt;div&gt;Login&lt;/div&gt;" style="shape=umlLifeline;perimeter=lifelinePerimeter;whiteSpace=wrap;html=1;container=1;dropTarget=0;collapsible=0;recursiveResize=0;outlineConnect=0;portConstraint=eastwest;newEdgeStyle={&quot;curved&quot;:0,&quot;rounded&quot;:0};" parent="1" vertex="1">
          <mxGeometry x="600" y="280" width="100" height="580" as="geometry" />
        </mxCell>
        <mxCell id="aM9ryv3xv72pqoxQDRHE-4" value="" style="html=1;points=[];perimeter=orthogonalPerimeter;outlineConnect=0;targetShapes=umlLifeline;portConstraint=eastwest;newEdgeStyle={&quot;edgeStyle&quot;:&quot;elbowEdgeStyle&quot;,&quot;elbow&quot;:&quot;vertical&quot;,&quot;curved&quot;:0,&quot;rounded&quot;:0};" parent="nFVy-DhmlmmS6isC8UW5-4" vertex="1">
          <mxGeometry x="45" y="130" width="10" height="320" as="geometry" />
        </mxCell>
        <mxCell id="nFVy-DhmlmmS6isC8UW5-7" style="edgeStyle=elbowEdgeStyle;rounded=0;orthogonalLoop=1;jettySize=auto;html=1;elbow=vertical;curved=0;" parent="nFVy-DhmlmmS6isC8UW5-4" source="aM9ryv3xv72pqoxQDRHE-4" target="nFVy-DhmlmmS6isC8UW5-4" edge="1">
          <mxGeometry relative="1" as="geometry">
            <mxPoint x="120" y="180" as="targetPoint" />
            <Array as="points">
              <mxPoint x="70" y="130" />
            </Array>
          </mxGeometry>
        </mxCell>
        <mxCell id="nFVy-DhmlmmS6isC8UW5-15" value="" style="endArrow=classic;html=1;rounded=0;" parent="nFVy-DhmlmmS6isC8UW5-4" source="aM9ryv3xv72pqoxQDRHE-4" edge="1">
          <mxGeometry width="50" height="50" relative="1" as="geometry">
            <mxPoint x="60" y="150" as="sourcePoint" />
            <mxPoint x="60" y="160" as="targetPoint" />
            <Array as="points">
              <mxPoint x="60" y="130" />
              <mxPoint x="100" y="130" />
              <mxPoint x="100" y="160" />
              <mxPoint x="70" y="160" />
            </Array>
          </mxGeometry>
        </mxCell>
        <mxCell id="nFVy-DhmlmmS6isC8UW5-5" value="Login" style="html=1;verticalAlign=bottom;endArrow=block;edgeStyle=elbowEdgeStyle;elbow=vertical;curved=0;rounded=0;" parent="1" source="aM9ryv3xv72pqoxQDRHE-2" target="aM9ryv3xv72pqoxQDRHE-6" edge="1">
          <mxGeometry x="-0.1053" relative="1" as="geometry">
            <mxPoint x="250.0000000000001" y="400" as="sourcePoint" />
            <Array as="points">
              <mxPoint x="340" y="400" />
            </Array>
            <mxPoint x="430" y="400" as="targetPoint" />
            <mxPoint as="offset" />
          </mxGeometry>
        </mxCell>
        <mxCell id="nFVy-DhmlmmS6isC8UW5-6" value="Send username &amp;amp; password hash" style="html=1;verticalAlign=bottom;endArrow=block;edgeStyle=elbowEdgeStyle;elbow=vertical;curved=0;rounded=0;" parent="1" source="aM9ryv3xv72pqoxQDRHE-6" target="nFVy-DhmlmmS6isC8UW5-4" edge="1">
          <mxGeometry x="-0.1053" relative="1" as="geometry">
            <mxPoint x="420" y="410" as="sourcePoint" />
            <Array as="points">
              <mxPoint x="515" y="410" />
            </Array>
            <mxPoint x="610" y="410" as="targetPoint" />
            <mxPoint as="offset" />
          </mxGeometry>
        </mxCell>
        <mxCell id="nFVy-DhmlmmS6isC8UW5-9" value="Validtate user&amp;nbsp;&lt;div&gt;login data&lt;/div&gt;" style="text;html=1;align=center;verticalAlign=middle;resizable=0;points=[];autosize=1;strokeColor=none;fillColor=none;" parent="1" vertex="1">
          <mxGeometry x="690" y="400" width="100" height="40" as="geometry" />
        </mxCell>
        <mxCell id="nFVy-DhmlmmS6isC8UW5-10" value="alt" style="shape=umlFrame;whiteSpace=wrap;html=1;pointerEvents=0;" parent="1" vertex="1">
          <mxGeometry x="210" y="490" width="500" height="320" as="geometry" />
        </mxCell>
        <mxCell id="nFVy-DhmlmmS6isC8UW5-11" value="If Login data is correct" style="text;html=1;align=center;verticalAlign=middle;resizable=0;points=[];autosize=1;strokeColor=none;fillColor=none;" parent="1" vertex="1">
          <mxGeometry x="270" y="490" width="140" height="30" as="geometry" />
        </mxCell>
        <mxCell id="nFVy-DhmlmmS6isC8UW5-16" value="" style="endArrow=none;html=1;rounded=0;exitX=0.001;exitY=0.799;exitDx=0;exitDy=0;exitPerimeter=0;entryX=0.996;entryY=0.812;entryDx=0;entryDy=0;entryPerimeter=0;" parent="1" edge="1">
          <mxGeometry width="50" height="50" relative="1" as="geometry">
            <mxPoint x="202.4999999999999" y="670" as="sourcePoint" />
            <mxPoint x="700" y="673.6400000000001" as="targetPoint" />
          </mxGeometry>
        </mxCell>
        <mxCell id="nFVy-DhmlmmS6isC8UW5-19" value="User login accepted" style="html=1;verticalAlign=bottom;endArrow=open;dashed=1;endSize=8;curved=0;rounded=0;" parent="1" source="aM9ryv3xv72pqoxQDRHE-4" target="aM9ryv3xv72pqoxQDRHE-5" edge="1">
          <mxGeometry relative="1" as="geometry">
            <mxPoint x="590" y="550" as="sourcePoint" />
            <mxPoint x="510" y="550" as="targetPoint" />
          </mxGeometry>
        </mxCell>
        <mxCell id="nFVy-DhmlmmS6isC8UW5-20" value="" style="html=1;points=[[0,0,0,0,5],[0,1,0,0,-5],[1,0,0,0,5],[1,1,0,0,-5]];perimeter=orthogonalPerimeter;outlineConnect=0;targetShapes=umlLifeline;portConstraint=eastwest;newEdgeStyle={&quot;curved&quot;:0,&quot;rounded&quot;:0};" parent="1" vertex="1">
          <mxGeometry x="430" y="570" width="10" height="80" as="geometry" />
        </mxCell>
        <mxCell id="nFVy-DhmlmmS6isC8UW5-21" value="" style="endArrow=classic;html=1;rounded=0;" parent="1" source="nFVy-DhmlmmS6isC8UW5-20" target="nFVy-DhmlmmS6isC8UW5-20" edge="1">
          <mxGeometry width="50" height="50" relative="1" as="geometry">
            <mxPoint x="440" y="610" as="sourcePoint" />
            <mxPoint x="490" y="560" as="targetPoint" />
          </mxGeometry>
        </mxCell>
        <mxCell id="nFVy-DhmlmmS6isC8UW5-22" value="redirect" style="text;html=1;align=center;verticalAlign=middle;resizable=0;points=[];autosize=1;strokeColor=none;fillColor=none;" parent="1" vertex="1">
          <mxGeometry x="460" y="595" width="60" height="30" as="geometry" />
        </mxCell>
        <mxCell id="nFVy-DhmlmmS6isC8UW5-23" value="Successfull login (message)" style="html=1;verticalAlign=bottom;endArrow=open;dashed=1;endSize=8;curved=0;rounded=0;exitX=0;exitY=1;exitDx=0;exitDy=-5;exitPerimeter=0;" parent="1" source="nFVy-DhmlmmS6isC8UW5-20" target="aM9ryv3xv72pqoxQDRHE-1" edge="1">
          <mxGeometry relative="1" as="geometry">
            <mxPoint x="430" y="630" as="sourcePoint" />
            <mxPoint x="350" y="630" as="targetPoint" />
          </mxGeometry>
        </mxCell>
        <mxCell id="nFVy-DhmlmmS6isC8UW5-24" value="" style="html=1;points=[[0,0,0,0,5],[0,1,0,0,-5],[1,0,0,0,5],[1,1,0,0,-5]];perimeter=orthogonalPerimeter;outlineConnect=0;targetShapes=umlLifeline;portConstraint=eastwest;newEdgeStyle={&quot;curved&quot;:0,&quot;rounded&quot;:0};" parent="1" vertex="1">
          <mxGeometry x="430" y="710" width="10" height="60" as="geometry" />
        </mxCell>
        <mxCell id="nFVy-DhmlmmS6isC8UW5-25" value="User login rejected" style="html=1;verticalAlign=bottom;endArrow=open;dashed=1;endSize=8;curved=0;rounded=0;" parent="1" source="aM9ryv3xv72pqoxQDRHE-4" target="nFVy-DhmlmmS6isC8UW5-24" edge="1">
          <mxGeometry relative="1" as="geometry">
            <mxPoint x="640" y="710" as="sourcePoint" />
            <mxPoint x="560" y="710" as="targetPoint" />
          </mxGeometry>
        </mxCell>
        <mxCell id="nFVy-DhmlmmS6isC8UW5-26" value="" style="endArrow=classic;html=1;rounded=0;" parent="1" source="nFVy-DhmlmmS6isC8UW5-24" target="nFVy-DhmlmmS6isC8UW5-24" edge="1">
          <mxGeometry width="50" height="50" relative="1" as="geometry">
            <mxPoint x="470" y="780" as="sourcePoint" />
            <mxPoint x="520" y="730" as="targetPoint" />
          </mxGeometry>
        </mxCell>
        <mxCell id="nFVy-DhmlmmS6isC8UW5-27" value="redirect" style="text;html=1;align=center;verticalAlign=middle;resizable=0;points=[];autosize=1;strokeColor=none;fillColor=none;" parent="1" vertex="1">
          <mxGeometry x="460" y="725" width="60" height="30" as="geometry" />
        </mxCell>
        <mxCell id="nFVy-DhmlmmS6isC8UW5-28" value="Clear the password field for the new entry" style="html=1;verticalAlign=bottom;endArrow=open;dashed=1;endSize=8;curved=0;rounded=0;exitX=0;exitY=1;exitDx=0;exitDy=-5;exitPerimeter=0;" parent="1" target="aM9ryv3xv72pqoxQDRHE-1" edge="1">
          <mxGeometry relative="1" as="geometry">
            <mxPoint x="430" y="770" as="sourcePoint" />
            <mxPoint x="240" y="770" as="targetPoint" />
          </mxGeometry>
        </mxCell>
        <mxCell id="nFVy-DhmlmmS6isC8UW5-29" value="If Login data is incorrect" style="text;html=1;align=center;verticalAlign=middle;resizable=0;points=[];autosize=1;strokeColor=none;fillColor=none;" parent="1" vertex="1">
          <mxGeometry x="265" y="670" width="150" height="30" as="geometry" />
        </mxCell>
        <mxCell id="3EgfcFbE505DxNgFuQgI-1" value="&lt;font style=&quot;font-size: 36px;&quot;&gt;login&lt;/font&gt;" style="text;html=1;align=center;verticalAlign=middle;resizable=0;points=[];autosize=1;strokeColor=none;fillColor=none;" parent="1" vertex="1">
          <mxGeometry x="155" y="133" width="100" height="60" as="geometry" />
        </mxCell>
      </root>
    </mxGraphModel>
  </diagram>
  <diagram id="sUUkqwbzeEKJyMlsIhj0" name="Page-2">
    <mxGraphModel dx="662" dy="318" grid="1" gridSize="10" guides="1" tooltips="1" connect="1" arrows="1" fold="1" page="1" pageScale="1" pageWidth="850" pageHeight="1100" math="0" shadow="0">
      <root>
        <mxCell id="0" />
        <mxCell id="1" parent="0" />
        <mxCell id="rMHUnX2Dxre-3EdNWALj-1" value="&amp;lt;&amp;lt;Interface&amp;gt;&amp;gt;&lt;div&gt;Create Account&lt;/div&gt;" style="shape=umlLifeline;perimeter=lifelinePerimeter;whiteSpace=wrap;html=1;container=0;dropTarget=0;collapsible=0;recursiveResize=0;outlineConnect=0;portConstraint=eastwest;newEdgeStyle={&quot;edgeStyle&quot;:&quot;elbowEdgeStyle&quot;,&quot;elbow&quot;:&quot;vertical&quot;,&quot;curved&quot;:0,&quot;rounded&quot;:0};" vertex="1" parent="1">
          <mxGeometry x="180" y="270" width="100" height="580" as="geometry" />
        </mxCell>
        <mxCell id="rMHUnX2Dxre-3EdNWALj-2" value="" style="html=1;points=[];perimeter=orthogonalPerimeter;outlineConnect=0;targetShapes=umlLifeline;portConstraint=eastwest;newEdgeStyle={&quot;edgeStyle&quot;:&quot;elbowEdgeStyle&quot;,&quot;elbow&quot;:&quot;vertical&quot;,&quot;curved&quot;:0,&quot;rounded&quot;:0};" vertex="1" parent="rMHUnX2Dxre-3EdNWALj-1">
          <mxGeometry x="45" y="70" width="10" height="160" as="geometry" />
        </mxCell>
        <mxCell id="rMHUnX2Dxre-3EdNWALj-3" value="&amp;lt;&amp;lt;Controller&amp;gt;&amp;gt;&lt;div&gt;Create Account&lt;/div&gt;" style="shape=umlLifeline;perimeter=lifelinePerimeter;whiteSpace=wrap;html=1;container=0;dropTarget=0;collapsible=0;recursiveResize=0;outlineConnect=0;portConstraint=eastwest;newEdgeStyle={&quot;edgeStyle&quot;:&quot;elbowEdgeStyle&quot;,&quot;elbow&quot;:&quot;vertical&quot;,&quot;curved&quot;:0,&quot;rounded&quot;:0};" vertex="1" parent="1">
          <mxGeometry x="390" y="280" width="100" height="570" as="geometry" />
        </mxCell>
        <mxCell id="rMHUnX2Dxre-3EdNWALj-4" value="&lt;span style=&quot;color: rgba(0, 0, 0, 0); font-family: monospace; font-size: 0px; text-align: start;&quot;&gt;%3CmxGraphModel%3E%3Croot%3E%3CmxCell%20id%3D%220%22%2F%3E%3CmxCell%20id%3D%221%22%20parent%3D%220%22%2F%3E%3CmxCell%20id%3D%222%22%20value%3D%22Login%22%20style%3D%22html%3D1%3BverticalAlign%3Dbottom%3BendArrow%3Dblock%3BedgeStyle%3DelbowEdgeStyle%3Belbow%3Dvertical%3Bcurved%3D0%3Brounded%3D0%3B%22%20edge%3D%221%22%20parent%3D%221%22%3E%3CmxGeometry%20x%3D%22-0.1053%22%20relative%3D%221%22%20as%3D%22geometry%22%3E%3CmxPoint%20x%3D%22205%22%20y%3D%22160%22%20as%3D%22sourcePoint%22%2F%3E%3CArray%20as%3D%22points%22%3E%3CmxPoint%20x%3D%22300%22%20y%3D%22160%22%2F%3E%3C%2FArray%3E%3CmxPoint%20x%3D%22395%22%20y%3D%22160%22%20as%3D%22targetPoint%22%2F%3E%3CmxPoint%20as%3D%22offset%22%2F%3E%3C%2FmxGeometry%3E%3C%2FmxCell%3E%3C%2Froot%3E%3C%2FmxGraphModel%3E&lt;/span&gt;" style="html=1;points=[];perimeter=orthogonalPerimeter;outlineConnect=0;targetShapes=umlLifeline;portConstraint=eastwest;newEdgeStyle={&quot;edgeStyle&quot;:&quot;elbowEdgeStyle&quot;,&quot;elbow&quot;:&quot;vertical&quot;,&quot;curved&quot;:0,&quot;rounded&quot;:0};" vertex="1" parent="rMHUnX2Dxre-3EdNWALj-3">
          <mxGeometry x="45" y="80" width="10" height="330" as="geometry" />
        </mxCell>
        <mxCell id="rMHUnX2Dxre-3EdNWALj-5" value="Check username availability" style="html=1;verticalAlign=bottom;endArrow=block;edgeStyle=elbowEdgeStyle;elbow=vertical;curved=0;rounded=0;" edge="1" parent="1" source="rMHUnX2Dxre-3EdNWALj-2">
          <mxGeometry relative="1" as="geometry">
            <mxPoint x="245.0000000000001" y="390" as="sourcePoint" />
            <Array as="points" />
            <mxPoint x="435" y="390" as="targetPoint" />
            <mxPoint as="offset" />
          </mxGeometry>
        </mxCell>
        <mxCell id="rMHUnX2Dxre-3EdNWALj-6" value="" style="shape=umlLifeline;perimeter=lifelinePerimeter;whiteSpace=wrap;html=1;container=1;dropTarget=0;collapsible=0;recursiveResize=0;outlineConnect=0;portConstraint=eastwest;newEdgeStyle={&quot;curved&quot;:0,&quot;rounded&quot;:0};participant=umlActor;size=40;" vertex="1" parent="1">
          <mxGeometry x="60" y="270" width="20" height="580" as="geometry" />
        </mxCell>
        <mxCell id="rMHUnX2Dxre-3EdNWALj-7" value="Customer/Owner/Worker" style="html=1;verticalAlign=bottom;startArrow=oval;endArrow=block;startSize=8;edgeStyle=elbowEdgeStyle;elbow=vertical;curved=0;rounded=0;" edge="1" parent="1" source="rMHUnX2Dxre-3EdNWALj-6" target="rMHUnX2Dxre-3EdNWALj-2">
          <mxGeometry x="-0.9905" y="20" relative="1" as="geometry">
            <mxPoint x="175" y="340" as="sourcePoint" />
            <Array as="points">
              <mxPoint x="180" y="350" />
            </Array>
            <mxPoint as="offset" />
          </mxGeometry>
        </mxCell>
        <mxCell id="rMHUnX2Dxre-3EdNWALj-8" value="&amp;lt;&amp;lt;Entity&amp;gt;&amp;gt;&lt;div&gt;Create Account&lt;/div&gt;" style="shape=umlLifeline;perimeter=lifelinePerimeter;whiteSpace=wrap;html=1;container=1;dropTarget=0;collapsible=0;recursiveResize=0;outlineConnect=0;portConstraint=eastwest;newEdgeStyle={&quot;curved&quot;:0,&quot;rounded&quot;:0};" vertex="1" parent="1">
          <mxGeometry x="600" y="280" width="100" height="580" as="geometry" />
        </mxCell>
        <mxCell id="rMHUnX2Dxre-3EdNWALj-9" value="" style="html=1;points=[];perimeter=orthogonalPerimeter;outlineConnect=0;targetShapes=umlLifeline;portConstraint=eastwest;newEdgeStyle={&quot;edgeStyle&quot;:&quot;elbowEdgeStyle&quot;,&quot;elbow&quot;:&quot;vertical&quot;,&quot;curved&quot;:0,&quot;rounded&quot;:0};" vertex="1" parent="rMHUnX2Dxre-3EdNWALj-8">
          <mxGeometry x="45" y="130" width="10" height="320" as="geometry" />
        </mxCell>
        <mxCell id="rMHUnX2Dxre-3EdNWALj-13" value="Check if username exists" style="html=1;verticalAlign=bottom;endArrow=block;edgeStyle=elbowEdgeStyle;elbow=vertical;curved=0;rounded=0;" edge="1" parent="1" source="rMHUnX2Dxre-3EdNWALj-4" target="rMHUnX2Dxre-3EdNWALj-8">
          <mxGeometry x="-0.1053" relative="1" as="geometry">
            <mxPoint x="420" y="410" as="sourcePoint" />
            <Array as="points">
              <mxPoint x="515" y="410" />
            </Array>
            <mxPoint x="610" y="410" as="targetPoint" />
            <mxPoint as="offset" />
          </mxGeometry>
        </mxCell>
        <mxCell id="rMHUnX2Dxre-3EdNWALj-29" value="Show from" style="html=1;verticalAlign=bottom;endArrow=open;dashed=1;endSize=8;curved=0;rounded=0;" edge="1" parent="1">
          <mxGeometry relative="1" as="geometry">
            <mxPoint x="220" y="390" as="sourcePoint" />
            <mxPoint x="69.5" y="390" as="targetPoint" />
            <Array as="points">
              <mxPoint x="150" y="390" />
            </Array>
          </mxGeometry>
        </mxCell>
        <mxCell id="rMHUnX2Dxre-3EdNWALj-30" value="Enter Detalis" style="html=1;verticalAlign=bottom;endArrow=block;edgeStyle=elbowEdgeStyle;elbow=vertical;curved=0;rounded=0;" edge="1" parent="1">
          <mxGeometry x="0.0667" relative="1" as="geometry">
            <mxPoint x="70.00000000000011" y="430" as="sourcePoint" />
            <Array as="points">
              <mxPoint x="75" y="430" />
            </Array>
            <mxPoint x="220" y="430" as="targetPoint" />
            <mxPoint as="offset" />
          </mxGeometry>
        </mxCell>
        <mxCell id="rMHUnX2Dxre-3EdNWALj-31" value="return user name avalibility Status" style="html=1;verticalAlign=bottom;endArrow=open;dashed=1;endSize=8;curved=0;rounded=0;" edge="1" parent="1">
          <mxGeometry relative="1" as="geometry">
            <mxPoint x="640" y="440" as="sourcePoint" />
            <mxPoint x="450" y="440" as="targetPoint" />
          </mxGeometry>
        </mxCell>
        <mxCell id="rMHUnX2Dxre-3EdNWALj-32" value="alt" style="shape=umlFrame;whiteSpace=wrap;html=1;pointerEvents=0;" vertex="1" parent="1">
          <mxGeometry x="190" y="460" width="300" height="200" as="geometry" />
        </mxCell>
        <mxCell id="rMHUnX2Dxre-3EdNWALj-33" value="" style="endArrow=none;html=1;rounded=0;exitX=0.006;exitY=0.509;exitDx=0;exitDy=0;exitPerimeter=0;entryX=0.999;entryY=0.513;entryDx=0;entryDy=0;entryPerimeter=0;" edge="1" parent="1" source="rMHUnX2Dxre-3EdNWALj-32" target="rMHUnX2Dxre-3EdNWALj-32">
          <mxGeometry width="50" height="50" relative="1" as="geometry">
            <mxPoint x="220" y="590" as="sourcePoint" />
            <mxPoint x="270" y="540" as="targetPoint" />
          </mxGeometry>
        </mxCell>
        <mxCell id="rMHUnX2Dxre-3EdNWALj-34" value="User name avaliable" style="text;html=1;align=center;verticalAlign=middle;whiteSpace=wrap;rounded=0;" vertex="1" parent="1">
          <mxGeometry x="250" y="460" width="150" height="30" as="geometry" />
        </mxCell>
        <mxCell id="rMHUnX2Dxre-3EdNWALj-35" value="User name unavaliable" style="text;html=1;align=center;verticalAlign=middle;whiteSpace=wrap;rounded=0;" vertex="1" parent="1">
          <mxGeometry x="250" y="560" width="150" height="30" as="geometry" />
        </mxCell>
        <mxCell id="rMHUnX2Dxre-3EdNWALj-36" value="" style="endArrow=classic;html=1;rounded=0;" edge="1" parent="1">
          <mxGeometry width="50" height="50" relative="1" as="geometry">
            <mxPoint x="439.4999999999998" y="520.0000000000002" as="sourcePoint" />
            <mxPoint x="229.54761904761904" y="520.0000000000002" as="targetPoint" />
          </mxGeometry>
        </mxCell>
        <mxCell id="rMHUnX2Dxre-3EdNWALj-38" value="Set User Name" style="text;html=1;align=center;verticalAlign=middle;whiteSpace=wrap;rounded=0;" vertex="1" parent="1">
          <mxGeometry x="285" y="500" width="105" height="30" as="geometry" />
        </mxCell>
        <mxCell id="rMHUnX2Dxre-3EdNWALj-39" value="" style="endArrow=classic;html=1;rounded=0;" edge="1" parent="1">
          <mxGeometry width="50" height="50" relative="1" as="geometry">
            <mxPoint x="439.94999999999976" y="620.0000000000002" as="sourcePoint" />
            <mxPoint x="229.99761904761903" y="620.0000000000002" as="targetPoint" />
          </mxGeometry>
        </mxCell>
        <mxCell id="rMHUnX2Dxre-3EdNWALj-40" value="Display error message" style="text;html=1;align=center;verticalAlign=middle;whiteSpace=wrap;rounded=0;" vertex="1" parent="1">
          <mxGeometry x="285.45" y="600" width="124.55" height="30" as="geometry" />
        </mxCell>
        <mxCell id="M4o3mDYoxtaL0rphMsgD-1" value="&lt;font style=&quot;font-size: 36px;&quot;&gt;Create Account&lt;/font&gt;" style="text;html=1;align=center;verticalAlign=middle;resizable=0;points=[];autosize=1;strokeColor=none;fillColor=none;" vertex="1" parent="1">
          <mxGeometry x="45" y="113" width="270" height="60" as="geometry" />
        </mxCell>
      </root>
    </mxGraphModel>
  </diagram>
  <diagram id="NNvLbl3_r-7E53InvQiO" name="Page-3">
    <mxGraphModel dx="802" dy="943" grid="1" gridSize="10" guides="1" tooltips="1" connect="1" arrows="1" fold="1" page="1" pageScale="1" pageWidth="850" pageHeight="1100" math="0" shadow="0">
      <root>
        <mxCell id="0" />
        <mxCell id="1" parent="0" />
        <mxCell id="4CCrb3cTjyQDuFeUEFsz-1" value="&lt;font style=&quot;font-size: 24px;&quot;&gt;Place Order&lt;/font&gt;" style="text;html=1;align=center;verticalAlign=middle;resizable=0;points=[];autosize=1;strokeColor=none;fillColor=none;" parent="1" vertex="1">
          <mxGeometry x="340" y="130" width="150" height="40" as="geometry" />
        </mxCell>
        <mxCell id="aA_Xn7G3kcxAELFoPMfb-1" value="&amp;lt;&amp;lt;Interface&amp;gt;&amp;gt;&lt;div&gt;Place Order&lt;br&gt;&lt;/div&gt;" style="shape=umlLifeline;perimeter=lifelinePerimeter;whiteSpace=wrap;html=1;container=0;dropTarget=0;collapsible=0;recursiveResize=0;outlineConnect=0;portConstraint=eastwest;newEdgeStyle={&quot;edgeStyle&quot;:&quot;elbowEdgeStyle&quot;,&quot;elbow&quot;:&quot;vertical&quot;,&quot;curved&quot;:0,&quot;rounded&quot;:0};" parent="1" vertex="1">
          <mxGeometry x="180" y="270" width="100" height="580" as="geometry" />
        </mxCell>
        <mxCell id="aA_Xn7G3kcxAELFoPMfb-2" value="" style="html=1;points=[];perimeter=orthogonalPerimeter;outlineConnect=0;targetShapes=umlLifeline;portConstraint=eastwest;newEdgeStyle={&quot;edgeStyle&quot;:&quot;elbowEdgeStyle&quot;,&quot;elbow&quot;:&quot;vertical&quot;,&quot;curved&quot;:0,&quot;rounded&quot;:0};" parent="aA_Xn7G3kcxAELFoPMfb-1" vertex="1">
          <mxGeometry x="45" y="70" width="10" height="110" as="geometry" />
        </mxCell>
        <mxCell id="aA_Xn7G3kcxAELFoPMfb-3" value="&amp;lt;&amp;lt;Controller&amp;gt;&amp;gt;&lt;div&gt;Place Order&lt;br&gt;&lt;/div&gt;" style="shape=umlLifeline;perimeter=lifelinePerimeter;whiteSpace=wrap;html=1;container=0;dropTarget=0;collapsible=0;recursiveResize=0;outlineConnect=0;portConstraint=eastwest;newEdgeStyle={&quot;edgeStyle&quot;:&quot;elbowEdgeStyle&quot;,&quot;elbow&quot;:&quot;vertical&quot;,&quot;curved&quot;:0,&quot;rounded&quot;:0};" parent="1" vertex="1">
          <mxGeometry x="390" y="280" width="100" height="570" as="geometry" />
        </mxCell>
        <mxCell id="aA_Xn7G3kcxAELFoPMfb-4" value="&lt;span style=&quot;color: rgba(0, 0, 0, 0); font-family: monospace; font-size: 0px; text-align: start;&quot;&gt;%3CmxGraphModel%3E%3Croot%3E%3CmxCell%20id%3D%220%22%2F%3E%3CmxCell%20id%3D%221%22%20parent%3D%220%22%2F%3E%3CmxCell%20id%3D%222%22%20value%3D%22Login%22%20style%3D%22html%3D1%3BverticalAlign%3Dbottom%3BendArrow%3Dblock%3BedgeStyle%3DelbowEdgeStyle%3Belbow%3Dvertical%3Bcurved%3D0%3Brounded%3D0%3B%22%20edge%3D%221%22%20parent%3D%221%22%3E%3CmxGeometry%20x%3D%22-0.1053%22%20relative%3D%221%22%20as%3D%22geometry%22%3E%3CmxPoint%20x%3D%22205%22%20y%3D%22160%22%20as%3D%22sourcePoint%22%2F%3E%3CArray%20as%3D%22points%22%3E%3CmxPoint%20x%3D%22300%22%20y%3D%22160%22%2F%3E%3C%2FArray%3E%3CmxPoint%20x%3D%22395%22%20y%3D%22160%22%20as%3D%22targetPoint%22%2F%3E%3CmxPoint%20as%3D%22offset%22%2F%3E%3C%2FmxGeometry%3E%3C%2FmxCell%3E%3C%2Froot%3E%3C%2FmxGraphModel%3E&lt;/span&gt;" style="html=1;points=[];perimeter=orthogonalPerimeter;outlineConnect=0;targetShapes=umlLifeline;portConstraint=eastwest;newEdgeStyle={&quot;edgeStyle&quot;:&quot;elbowEdgeStyle&quot;,&quot;elbow&quot;:&quot;vertical&quot;,&quot;curved&quot;:0,&quot;rounded&quot;:0};" parent="aA_Xn7G3kcxAELFoPMfb-3" vertex="1">
          <mxGeometry x="45" y="80" width="10" height="70" as="geometry" />
        </mxCell>
        <mxCell id="aA_Xn7G3kcxAELFoPMfb-5" value=" sends order details " style="html=1;verticalAlign=bottom;endArrow=block;edgeStyle=elbowEdgeStyle;elbow=vertical;curved=0;rounded=0;" parent="1" edge="1">
          <mxGeometry x="0.0021" relative="1" as="geometry">
            <mxPoint x="245.0000000000001" y="370" as="sourcePoint" />
            <Array as="points">
              <mxPoint x="250" y="370" />
            </Array>
            <mxPoint x="435" y="370" as="targetPoint" />
            <mxPoint as="offset" />
          </mxGeometry>
        </mxCell>
        <mxCell id="aA_Xn7G3kcxAELFoPMfb-6" value="" style="shape=umlLifeline;perimeter=lifelinePerimeter;whiteSpace=wrap;html=1;container=1;dropTarget=0;collapsible=0;recursiveResize=0;outlineConnect=0;portConstraint=eastwest;newEdgeStyle={&quot;curved&quot;:0,&quot;rounded&quot;:0};participant=umlActor;size=40;" parent="1" vertex="1">
          <mxGeometry x="20" y="290" width="20" height="580" as="geometry" />
        </mxCell>
        <mxCell id="aA_Xn7G3kcxAELFoPMfb-7" value="selects items and places an order" style="html=1;verticalAlign=bottom;startArrow=oval;endArrow=block;startSize=8;edgeStyle=elbowEdgeStyle;elbow=vertical;curved=0;rounded=0;" parent="1" source="aA_Xn7G3kcxAELFoPMfb-6" target="aA_Xn7G3kcxAELFoPMfb-2" edge="1">
          <mxGeometry relative="1" as="geometry">
            <mxPoint x="175" y="340" as="sourcePoint" />
            <Array as="points">
              <mxPoint x="180" y="350" />
            </Array>
          </mxGeometry>
        </mxCell>
        <mxCell id="aA_Xn7G3kcxAELFoPMfb-8" value="&amp;lt;&amp;lt;Entity&amp;gt;&amp;gt;&lt;div&gt;Login&lt;/div&gt;" style="shape=umlLifeline;perimeter=lifelinePerimeter;whiteSpace=wrap;html=1;container=1;dropTarget=0;collapsible=0;recursiveResize=0;outlineConnect=0;portConstraint=eastwest;newEdgeStyle={&quot;curved&quot;:0,&quot;rounded&quot;:0};" parent="1" vertex="1">
          <mxGeometry x="600" y="280" width="100" height="580" as="geometry" />
        </mxCell>
        <mxCell id="aA_Xn7G3kcxAELFoPMfb-9" value="" style="html=1;points=[];perimeter=orthogonalPerimeter;outlineConnect=0;targetShapes=umlLifeline;portConstraint=eastwest;newEdgeStyle={&quot;edgeStyle&quot;:&quot;elbowEdgeStyle&quot;,&quot;elbow&quot;:&quot;vertical&quot;,&quot;curved&quot;:0,&quot;rounded&quot;:0};" parent="aA_Xn7G3kcxAELFoPMfb-8" vertex="1">
          <mxGeometry x="45" y="130" width="10" height="320" as="geometry" />
        </mxCell>
        <mxCell id="aA_Xn7G3kcxAELFoPMfb-10" style="edgeStyle=elbowEdgeStyle;rounded=0;orthogonalLoop=1;jettySize=auto;html=1;elbow=vertical;curved=0;" parent="aA_Xn7G3kcxAELFoPMfb-8" source="aA_Xn7G3kcxAELFoPMfb-9" target="aA_Xn7G3kcxAELFoPMfb-8" edge="1">
          <mxGeometry relative="1" as="geometry">
            <mxPoint x="120" y="180" as="targetPoint" />
            <Array as="points">
              <mxPoint x="70" y="130" />
            </Array>
          </mxGeometry>
        </mxCell>
        <mxCell id="aA_Xn7G3kcxAELFoPMfb-11" value="" style="endArrow=classic;html=1;rounded=0;" parent="aA_Xn7G3kcxAELFoPMfb-8" source="aA_Xn7G3kcxAELFoPMfb-9" edge="1">
          <mxGeometry width="50" height="50" relative="1" as="geometry">
            <mxPoint x="60" y="150" as="sourcePoint" />
            <mxPoint x="60" y="160" as="targetPoint" />
            <Array as="points">
              <mxPoint x="60" y="130" />
              <mxPoint x="100" y="130" />
              <mxPoint x="100" y="160" />
              <mxPoint x="70" y="160" />
            </Array>
          </mxGeometry>
        </mxCell>
        <mxCell id="aA_Xn7G3kcxAELFoPMfb-12" value="Login" style="html=1;verticalAlign=bottom;endArrow=block;edgeStyle=elbowEdgeStyle;elbow=vertical;curved=0;rounded=0;" parent="1" source="aA_Xn7G3kcxAELFoPMfb-2" target="aA_Xn7G3kcxAELFoPMfb-4" edge="1">
          <mxGeometry x="-0.1053" relative="1" as="geometry">
            <mxPoint x="250.0000000000001" y="400" as="sourcePoint" />
            <Array as="points">
              <mxPoint x="340" y="400" />
            </Array>
            <mxPoint x="430" y="400" as="targetPoint" />
            <mxPoint as="offset" />
          </mxGeometry>
        </mxCell>
        <mxCell id="aA_Xn7G3kcxAELFoPMfb-13" value="Send username &amp;amp; password hash" style="html=1;verticalAlign=bottom;endArrow=block;edgeStyle=elbowEdgeStyle;elbow=vertical;curved=0;rounded=0;" parent="1" source="aA_Xn7G3kcxAELFoPMfb-4" target="aA_Xn7G3kcxAELFoPMfb-8" edge="1">
          <mxGeometry x="-0.1053" relative="1" as="geometry">
            <mxPoint x="420" y="410" as="sourcePoint" />
            <Array as="points">
              <mxPoint x="515" y="410" />
            </Array>
            <mxPoint x="610" y="410" as="targetPoint" />
            <mxPoint as="offset" />
          </mxGeometry>
        </mxCell>
        <mxCell id="aA_Xn7G3kcxAELFoPMfb-14" value="Validtate user&amp;nbsp;&lt;div&gt;login data&lt;/div&gt;" style="text;html=1;align=center;verticalAlign=middle;resizable=0;points=[];autosize=1;strokeColor=none;fillColor=none;" parent="1" vertex="1">
          <mxGeometry x="690" y="400" width="100" height="40" as="geometry" />
        </mxCell>
        <mxCell id="aA_Xn7G3kcxAELFoPMfb-15" value="alt" style="shape=umlFrame;whiteSpace=wrap;html=1;pointerEvents=0;" parent="1" vertex="1">
          <mxGeometry x="210" y="490" width="500" height="320" as="geometry" />
        </mxCell>
        <mxCell id="aA_Xn7G3kcxAELFoPMfb-16" value="If Login data is correct" style="text;html=1;align=center;verticalAlign=middle;resizable=0;points=[];autosize=1;strokeColor=none;fillColor=none;" parent="1" vertex="1">
          <mxGeometry x="270" y="490" width="140" height="30" as="geometry" />
        </mxCell>
        <mxCell id="aA_Xn7G3kcxAELFoPMfb-17" value="" style="endArrow=none;html=1;rounded=0;exitX=0.001;exitY=0.799;exitDx=0;exitDy=0;exitPerimeter=0;entryX=0.996;entryY=0.812;entryDx=0;entryDy=0;entryPerimeter=0;" parent="1" edge="1">
          <mxGeometry width="50" height="50" relative="1" as="geometry">
            <mxPoint x="202.4999999999999" y="670" as="sourcePoint" />
            <mxPoint x="700" y="673.6400000000001" as="targetPoint" />
          </mxGeometry>
        </mxCell>
        <mxCell id="aA_Xn7G3kcxAELFoPMfb-18" value="User login accepted" style="html=1;verticalAlign=bottom;endArrow=open;dashed=1;endSize=8;curved=0;rounded=0;" parent="1" source="aA_Xn7G3kcxAELFoPMfb-9" target="aA_Xn7G3kcxAELFoPMfb-3" edge="1">
          <mxGeometry relative="1" as="geometry">
            <mxPoint x="590" y="550" as="sourcePoint" />
            <mxPoint x="510" y="550" as="targetPoint" />
          </mxGeometry>
        </mxCell>
        <mxCell id="aA_Xn7G3kcxAELFoPMfb-19" value="" style="html=1;points=[[0,0,0,0,5],[0,1,0,0,-5],[1,0,0,0,5],[1,1,0,0,-5]];perimeter=orthogonalPerimeter;outlineConnect=0;targetShapes=umlLifeline;portConstraint=eastwest;newEdgeStyle={&quot;curved&quot;:0,&quot;rounded&quot;:0};" parent="1" vertex="1">
          <mxGeometry x="430" y="570" width="10" height="80" as="geometry" />
        </mxCell>
        <mxCell id="aA_Xn7G3kcxAELFoPMfb-20" value="" style="endArrow=classic;html=1;rounded=0;" parent="1" source="aA_Xn7G3kcxAELFoPMfb-19" target="aA_Xn7G3kcxAELFoPMfb-19" edge="1">
          <mxGeometry width="50" height="50" relative="1" as="geometry">
            <mxPoint x="440" y="610" as="sourcePoint" />
            <mxPoint x="490" y="560" as="targetPoint" />
          </mxGeometry>
        </mxCell>
        <mxCell id="aA_Xn7G3kcxAELFoPMfb-21" value="redirect" style="text;html=1;align=center;verticalAlign=middle;resizable=0;points=[];autosize=1;strokeColor=none;fillColor=none;" parent="1" vertex="1">
          <mxGeometry x="460" y="595" width="60" height="30" as="geometry" />
        </mxCell>
        <mxCell id="aA_Xn7G3kcxAELFoPMfb-22" value="Successfull login (message)" style="html=1;verticalAlign=bottom;endArrow=open;dashed=1;endSize=8;curved=0;rounded=0;exitX=0;exitY=1;exitDx=0;exitDy=-5;exitPerimeter=0;" parent="1" source="aA_Xn7G3kcxAELFoPMfb-19" target="aA_Xn7G3kcxAELFoPMfb-1" edge="1">
          <mxGeometry relative="1" as="geometry">
            <mxPoint x="430" y="630" as="sourcePoint" />
            <mxPoint x="350" y="630" as="targetPoint" />
          </mxGeometry>
        </mxCell>
        <mxCell id="aA_Xn7G3kcxAELFoPMfb-23" value="" style="html=1;points=[[0,0,0,0,5],[0,1,0,0,-5],[1,0,0,0,5],[1,1,0,0,-5]];perimeter=orthogonalPerimeter;outlineConnect=0;targetShapes=umlLifeline;portConstraint=eastwest;newEdgeStyle={&quot;curved&quot;:0,&quot;rounded&quot;:0};" parent="1" vertex="1">
          <mxGeometry x="430" y="710" width="10" height="60" as="geometry" />
        </mxCell>
        <mxCell id="aA_Xn7G3kcxAELFoPMfb-24" value="User login rejected" style="html=1;verticalAlign=bottom;endArrow=open;dashed=1;endSize=8;curved=0;rounded=0;" parent="1" source="aA_Xn7G3kcxAELFoPMfb-9" target="aA_Xn7G3kcxAELFoPMfb-23" edge="1">
          <mxGeometry relative="1" as="geometry">
            <mxPoint x="640" y="710" as="sourcePoint" />
            <mxPoint x="560" y="710" as="targetPoint" />
          </mxGeometry>
        </mxCell>
        <mxCell id="aA_Xn7G3kcxAELFoPMfb-25" value="" style="endArrow=classic;html=1;rounded=0;" parent="1" source="aA_Xn7G3kcxAELFoPMfb-23" target="aA_Xn7G3kcxAELFoPMfb-23" edge="1">
          <mxGeometry width="50" height="50" relative="1" as="geometry">
            <mxPoint x="470" y="780" as="sourcePoint" />
            <mxPoint x="520" y="730" as="targetPoint" />
          </mxGeometry>
        </mxCell>
        <mxCell id="aA_Xn7G3kcxAELFoPMfb-26" value="redirect" style="text;html=1;align=center;verticalAlign=middle;resizable=0;points=[];autosize=1;strokeColor=none;fillColor=none;" parent="1" vertex="1">
          <mxGeometry x="460" y="725" width="60" height="30" as="geometry" />
        </mxCell>
        <mxCell id="aA_Xn7G3kcxAELFoPMfb-27" value="Clear the password field for the new entry" style="html=1;verticalAlign=bottom;endArrow=open;dashed=1;endSize=8;curved=0;rounded=0;exitX=0;exitY=1;exitDx=0;exitDy=-5;exitPerimeter=0;" parent="1" target="aA_Xn7G3kcxAELFoPMfb-1" edge="1">
          <mxGeometry relative="1" as="geometry">
            <mxPoint x="430" y="770" as="sourcePoint" />
            <mxPoint x="240" y="770" as="targetPoint" />
          </mxGeometry>
        </mxCell>
        <mxCell id="aA_Xn7G3kcxAELFoPMfb-28" value="If Login data is incorrect" style="text;html=1;align=center;verticalAlign=middle;resizable=0;points=[];autosize=1;strokeColor=none;fillColor=none;" parent="1" vertex="1">
          <mxGeometry x="265" y="670" width="150" height="30" as="geometry" />
        </mxCell>
        <mxCell id="aA_Xn7G3kcxAELFoPMfb-29" value="Customer" style="text;html=1;align=center;verticalAlign=middle;resizable=0;points=[];autosize=1;strokeColor=none;fillColor=none;" parent="1" vertex="1">
          <mxGeometry x="80" y="300" width="80" height="30" as="geometry" />
        </mxCell>
      </root>
    </mxGraphModel>
  </diagram>
  <diagram id="j8DyqSEQeaSoG1EZgmKb" name="Page-4">
    <mxGraphModel dx="434" dy="511" grid="1" gridSize="10" guides="1" tooltips="1" connect="1" arrows="1" fold="1" page="1" pageScale="1" pageWidth="850" pageHeight="1100" math="0" shadow="0">
      <root>
        <mxCell id="0" />
        <mxCell id="1" parent="0" />
        <mxCell id="ZR5Aemub5WBAXj3BNcwu-1" value="&lt;font style=&quot;font-size: 18px;&quot;&gt;Work Destribution&lt;/font&gt;" style="text;html=1;align=center;verticalAlign=middle;resizable=0;points=[];autosize=1;strokeColor=none;fillColor=none;" parent="1" vertex="1">
          <mxGeometry x="290" y="190" width="170" height="40" as="geometry" />
        </mxCell>
        <mxCell id="pr92JK7oEtufWkA8BkMj-1" value="&amp;lt;&amp;lt;Interface&amp;gt;&amp;gt;&lt;div&gt;set work Destribution&lt;/div&gt;" style="shape=umlLifeline;perimeter=lifelinePerimeter;whiteSpace=wrap;html=1;container=0;dropTarget=0;collapsible=0;recursiveResize=0;outlineConnect=0;portConstraint=eastwest;newEdgeStyle={&quot;edgeStyle&quot;:&quot;elbowEdgeStyle&quot;,&quot;elbow&quot;:&quot;vertical&quot;,&quot;curved&quot;:0,&quot;rounded&quot;:0};" parent="1" vertex="1">
          <mxGeometry x="110" y="275" width="100" height="310" as="geometry" />
        </mxCell>
        <mxCell id="pr92JK7oEtufWkA8BkMj-2" value="" style="html=1;points=[];perimeter=orthogonalPerimeter;outlineConnect=0;targetShapes=umlLifeline;portConstraint=eastwest;newEdgeStyle={&quot;edgeStyle&quot;:&quot;elbowEdgeStyle&quot;,&quot;elbow&quot;:&quot;vertical&quot;,&quot;curved&quot;:0,&quot;rounded&quot;:0};" parent="pr92JK7oEtufWkA8BkMj-1" vertex="1">
          <mxGeometry x="45" y="70" width="10" height="140" as="geometry" />
        </mxCell>
        <mxCell id="pr92JK7oEtufWkA8BkMj-3" value="&amp;lt;&amp;lt;Controller&amp;gt;&amp;gt;&lt;div&gt;work Destribution&lt;/div&gt;" style="shape=umlLifeline;perimeter=lifelinePerimeter;whiteSpace=wrap;html=1;container=0;dropTarget=0;collapsible=0;recursiveResize=0;outlineConnect=0;portConstraint=eastwest;newEdgeStyle={&quot;edgeStyle&quot;:&quot;elbowEdgeStyle&quot;,&quot;elbow&quot;:&quot;vertical&quot;,&quot;curved&quot;:0,&quot;rounded&quot;:0};" parent="1" vertex="1">
          <mxGeometry x="315" y="275" width="100" height="310" as="geometry" />
        </mxCell>
        <mxCell id="pr92JK7oEtufWkA8BkMj-4" value="&lt;span style=&quot;color: rgba(0, 0, 0, 0); font-family: monospace; font-size: 0px; text-align: start;&quot;&gt;%3CmxGraphModel%3E%3Croot%3E%3CmxCell%20id%3D%220%22%2F%3E%3CmxCell%20id%3D%221%22%20parent%3D%220%22%2F%3E%3CmxCell%20id%3D%222%22%20value%3D%22Login%22%20style%3D%22html%3D1%3BverticalAlign%3Dbottom%3BendArrow%3Dblock%3BedgeStyle%3DelbowEdgeStyle%3Belbow%3Dvertical%3Bcurved%3D0%3Brounded%3D0%3B%22%20edge%3D%221%22%20parent%3D%221%22%3E%3CmxGeometry%20x%3D%22-0.1053%22%20relative%3D%221%22%20as%3D%22geometry%22%3E%3CmxPoint%20x%3D%22205%22%20y%3D%22160%22%20as%3D%22sourcePoint%22%2F%3E%3CArray%20as%3D%22points%22%3E%3CmxPoint%20x%3D%22300%22%20y%3D%22160%22%2F%3E%3C%2FArray%3E%3CmxPoint%20x%3D%22395%22%20y%3D%22160%22%20as%3D%22targetPoint%22%2F%3E%3CmxPoint%20as%3D%22offset%22%2F%3E%3C%2FmxGeometry%3E%3C%2FmxCell%3E%3C%2Froot%3E%3C%2FmxGraphModel%3E&lt;/span&gt;" style="html=1;points=[];perimeter=orthogonalPerimeter;outlineConnect=0;targetShapes=umlLifeline;portConstraint=eastwest;newEdgeStyle={&quot;edgeStyle&quot;:&quot;elbowEdgeStyle&quot;,&quot;elbow&quot;:&quot;vertical&quot;,&quot;curved&quot;:0,&quot;rounded&quot;:0};" parent="pr92JK7oEtufWkA8BkMj-3" vertex="1">
          <mxGeometry x="45" y="130" width="10" height="70" as="geometry" />
        </mxCell>
        <mxCell id="pr92JK7oEtufWkA8BkMj-6" value="" style="shape=umlLifeline;perimeter=lifelinePerimeter;whiteSpace=wrap;html=1;container=1;dropTarget=0;collapsible=0;recursiveResize=0;outlineConnect=0;portConstraint=eastwest;newEdgeStyle={&quot;curved&quot;:0,&quot;rounded&quot;:0};participant=umlActor;" parent="1" vertex="1">
          <mxGeometry x="40" y="275" width="20" height="310" as="geometry" />
        </mxCell>
        <mxCell id="pr92JK7oEtufWkA8BkMj-7" value="assignTask" style="html=1;verticalAlign=bottom;startArrow=oval;endArrow=block;startSize=8;edgeStyle=elbowEdgeStyle;elbow=horizontal;curved=0;rounded=0;" parent="1" source="pr92JK7oEtufWkA8BkMj-6" target="pr92JK7oEtufWkA8BkMj-2" edge="1">
          <mxGeometry x="-0.0062" relative="1" as="geometry">
            <mxPoint x="105" y="345" as="sourcePoint" />
            <Array as="points">
              <mxPoint x="110" y="355" />
            </Array>
            <mxPoint as="offset" />
          </mxGeometry>
        </mxCell>
        <mxCell id="pr92JK7oEtufWkA8BkMj-8" value="&amp;lt;&amp;lt;Entity&amp;gt;&amp;gt;&lt;div&gt;work Destribution&lt;/div&gt;" style="shape=umlLifeline;perimeter=lifelinePerimeter;whiteSpace=wrap;html=1;container=1;dropTarget=0;collapsible=0;recursiveResize=0;outlineConnect=0;portConstraint=eastwest;newEdgeStyle={&quot;curved&quot;:0,&quot;rounded&quot;:0};" parent="1" vertex="1">
          <mxGeometry x="530" y="275" width="100" height="310" as="geometry" />
        </mxCell>
        <mxCell id="pr92JK7oEtufWkA8BkMj-9" value="" style="html=1;points=[];perimeter=orthogonalPerimeter;outlineConnect=0;targetShapes=umlLifeline;portConstraint=eastwest;newEdgeStyle={&quot;edgeStyle&quot;:&quot;elbowEdgeStyle&quot;,&quot;elbow&quot;:&quot;vertical&quot;,&quot;curved&quot;:0,&quot;rounded&quot;:0};" parent="pr92JK7oEtufWkA8BkMj-8" vertex="1">
          <mxGeometry x="45" y="130" width="10" height="50" as="geometry" />
        </mxCell>
        <mxCell id="pr92JK7oEtufWkA8BkMj-10" style="edgeStyle=elbowEdgeStyle;rounded=0;orthogonalLoop=1;jettySize=auto;html=1;elbow=vertical;curved=0;" parent="pr92JK7oEtufWkA8BkMj-8" source="pr92JK7oEtufWkA8BkMj-9" target="pr92JK7oEtufWkA8BkMj-8" edge="1">
          <mxGeometry relative="1" as="geometry">
            <mxPoint x="120" y="180" as="targetPoint" />
            <Array as="points">
              <mxPoint x="70" y="130" />
            </Array>
          </mxGeometry>
        </mxCell>
        <mxCell id="pr92JK7oEtufWkA8BkMj-12" value="assigned task" style="html=1;verticalAlign=bottom;endArrow=block;edgeStyle=elbowEdgeStyle;elbow=vertical;curved=0;rounded=0;" parent="1" source="pr92JK7oEtufWkA8BkMj-2" target="pr92JK7oEtufWkA8BkMj-4" edge="1">
          <mxGeometry x="-0.1053" relative="1" as="geometry">
            <mxPoint x="180.0000000000001" y="405" as="sourcePoint" />
            <Array as="points">
              <mxPoint x="270" y="405" />
            </Array>
            <mxPoint x="360" y="405" as="targetPoint" />
            <mxPoint as="offset" />
          </mxGeometry>
        </mxCell>
        <mxCell id="pr92JK7oEtufWkA8BkMj-13" value="" style="html=1;verticalAlign=bottom;endArrow=block;edgeStyle=elbowEdgeStyle;elbow=horizontal;curved=0;rounded=0;" parent="1" source="pr92JK7oEtufWkA8BkMj-4" target="pr92JK7oEtufWkA8BkMj-8" edge="1">
          <mxGeometry x="-0.1053" relative="1" as="geometry">
            <mxPoint x="350" y="415" as="sourcePoint" />
            <Array as="points">
              <mxPoint x="445" y="415" />
            </Array>
            <mxPoint x="540" y="415" as="targetPoint" />
            <mxPoint as="offset" />
          </mxGeometry>
        </mxCell>
        <mxCell id="pr92JK7oEtufWkA8BkMj-17" value="Send Notification" style="html=1;verticalAlign=bottom;endArrow=open;dashed=1;endSize=8;curved=0;rounded=0;" parent="1" edge="1">
          <mxGeometry x="0.1402" relative="1" as="geometry">
            <mxPoint x="585.08" y="445" as="sourcePoint" />
            <mxPoint x="374.91333333333324" y="445" as="targetPoint" />
            <Array as="points" />
            <mxPoint y="-1" as="offset" />
          </mxGeometry>
        </mxCell>
        <mxCell id="pr92JK7oEtufWkA8BkMj-28" value="" style="shape=umlLifeline;perimeter=lifelinePerimeter;whiteSpace=wrap;html=1;container=1;dropTarget=0;collapsible=0;recursiveResize=0;outlineConnect=0;portConstraint=eastwest;newEdgeStyle={&quot;curved&quot;:0,&quot;rounded&quot;:0};participant=umlActor;size=40;" parent="1" vertex="1">
          <mxGeometry x="800" y="270" width="20" height="315" as="geometry" />
        </mxCell>
        <mxCell id="pr92JK7oEtufWkA8BkMj-29" value="Owner" style="text;html=1;align=center;verticalAlign=middle;whiteSpace=wrap;rounded=0;" parent="1" vertex="1">
          <mxGeometry x="20" y="305" width="60" height="30" as="geometry" />
        </mxCell>
        <mxCell id="pr92JK7oEtufWkA8BkMj-30" value="Worker" style="text;html=1;align=center;verticalAlign=middle;whiteSpace=wrap;rounded=0;" parent="1" vertex="1">
          <mxGeometry x="780" y="300" width="60" height="30" as="geometry" />
        </mxCell>
        <mxCell id="pr92JK7oEtufWkA8BkMj-31" style="edgeStyle=orthogonalEdgeStyle;rounded=0;orthogonalLoop=1;jettySize=auto;html=1;exitX=0.5;exitY=1;exitDx=0;exitDy=0;" parent="1" source="pr92JK7oEtufWkA8BkMj-30" target="pr92JK7oEtufWkA8BkMj-30" edge="1">
          <mxGeometry relative="1" as="geometry" />
        </mxCell>
        <mxCell id="FMzVA-8-xjFb2mfZxzRE-2" value="Update Worker Assignment" style="text;html=1;align=center;verticalAlign=middle;whiteSpace=wrap;rounded=0;" parent="1" vertex="1">
          <mxGeometry x="390" y="385" width="180" height="30" as="geometry" />
        </mxCell>
        <mxCell id="FMzVA-8-xjFb2mfZxzRE-4" value="New Task Notification" style="html=1;verticalAlign=bottom;endArrow=block;edgeStyle=elbowEdgeStyle;elbow=vertical;curved=0;rounded=0;" parent="1" source="pr92JK7oEtufWkA8BkMj-3" target="FMzVA-8-xjFb2mfZxzRE-5" edge="1">
          <mxGeometry x="0.0269" y="5" relative="1" as="geometry">
            <mxPoint x="680" y="495" as="sourcePoint" />
            <Array as="points">
              <mxPoint x="600" y="495" />
            </Array>
            <mxPoint x="860" y="495" as="targetPoint" />
            <mxPoint as="offset" />
          </mxGeometry>
        </mxCell>
        <mxCell id="FMzVA-8-xjFb2mfZxzRE-5" value="&amp;lt;&amp;lt;Interface&amp;gt;&amp;gt;&lt;div&gt;set work Destribution&lt;/div&gt;" style="shape=umlLifeline;perimeter=lifelinePerimeter;whiteSpace=wrap;html=1;container=0;dropTarget=0;collapsible=0;recursiveResize=0;outlineConnect=0;portConstraint=eastwest;newEdgeStyle={&quot;edgeStyle&quot;:&quot;elbowEdgeStyle&quot;,&quot;elbow&quot;:&quot;vertical&quot;,&quot;curved&quot;:0,&quot;rounded&quot;:0};" parent="1" vertex="1">
          <mxGeometry x="650" y="275" width="100" height="310" as="geometry" />
        </mxCell>
        <mxCell id="FMzVA-8-xjFb2mfZxzRE-8" value="Successful Massage" style="html=1;verticalAlign=bottom;endArrow=block;edgeStyle=elbowEdgeStyle;elbow=vertical;curved=0;rounded=0;" parent="1" edge="1">
          <mxGeometry x="-0.1053" relative="1" as="geometry">
            <mxPoint x="364.5" y="475" as="sourcePoint" />
            <Array as="points">
              <mxPoint x="265" y="475" />
            </Array>
            <mxPoint x="159.63043478260875" y="475" as="targetPoint" />
            <mxPoint as="offset" />
          </mxGeometry>
        </mxCell>
        <mxCell id="FMzVA-8-xjFb2mfZxzRE-9" value="" style="endArrow=classic;html=1;rounded=0;" parent="1" source="FMzVA-8-xjFb2mfZxzRE-5" target="pr92JK7oEtufWkA8BkMj-28" edge="1">
          <mxGeometry width="50" height="50" relative="1" as="geometry">
            <mxPoint x="750" y="565" as="sourcePoint" />
            <mxPoint x="800" y="515" as="targetPoint" />
            <Array as="points">
              <mxPoint x="780" y="525" />
            </Array>
          </mxGeometry>
        </mxCell>
        <mxCell id="FMzVA-8-xjFb2mfZxzRE-10" value="Get Notification" style="text;html=1;align=center;verticalAlign=middle;whiteSpace=wrap;rounded=0;" parent="1" vertex="1">
          <mxGeometry x="680" y="495" width="160" height="30" as="geometry" />
        </mxCell>
        <mxCell id="e0gKGX-7qj4nKT4kraa1-5" value="" style="rounded=0;whiteSpace=wrap;html=1;strokeColor=#FFFFFF;" vertex="1" parent="1">
          <mxGeometry x="100" y="260" width="120" height="60" as="geometry" />
        </mxCell>
        <mxCell id="e0gKGX-7qj4nKT4kraa1-6" value="" style="rounded=0;whiteSpace=wrap;html=1;strokeColor=#FFFFFF;" vertex="1" parent="1">
          <mxGeometry x="305" y="260" width="120" height="60" as="geometry" />
        </mxCell>
        <mxCell id="e0gKGX-7qj4nKT4kraa1-7" value="" style="rounded=0;whiteSpace=wrap;html=1;strokeColor=#FFFFFF;" vertex="1" parent="1">
          <mxGeometry x="520" y="260" width="120" height="60" as="geometry" />
        </mxCell>
        <mxCell id="e0gKGX-7qj4nKT4kraa1-8" value="" style="rounded=0;whiteSpace=wrap;html=1;strokeColor=#FFFFFF;" vertex="1" parent="1">
          <mxGeometry x="650" y="260" width="120" height="60" as="geometry" />
        </mxCell>
        <mxCell id="e0gKGX-7qj4nKT4kraa1-4" value="&amp;lt;&amp;lt;Interface&amp;gt;&amp;gt;&lt;div&gt;Get work Destribution&lt;/div&gt;" style="shape=umlBoundary;whiteSpace=wrap;html=1;" vertex="1" parent="1">
          <mxGeometry x="640" y="255" width="100" height="80" as="geometry" />
        </mxCell>
        <mxCell id="e0gKGX-7qj4nKT4kraa1-3" value="&amp;lt;&amp;lt;Entity&amp;gt;&amp;gt;&lt;div&gt;work Destribution&lt;/div&gt;" style="ellipse;shape=umlEntity;whiteSpace=wrap;html=1;" vertex="1" parent="1">
          <mxGeometry x="540" y="255" width="80" height="80" as="geometry" />
        </mxCell>
        <mxCell id="e0gKGX-7qj4nKT4kraa1-2" value="&amp;lt;&amp;lt;Controller&amp;gt;&amp;gt;&lt;div&gt;work Destribution&lt;/div&gt;" style="ellipse;shape=umlControl;whiteSpace=wrap;html=1;" vertex="1" parent="1">
          <mxGeometry x="322.5" y="240" width="85" height="90" as="geometry" />
        </mxCell>
        <mxCell id="e0gKGX-7qj4nKT4kraa1-1" value="&amp;lt;&amp;lt;Interface&amp;gt;&amp;gt;&lt;div&gt;set work Destribution&lt;/div&gt;" style="shape=umlBoundary;whiteSpace=wrap;html=1;" vertex="1" parent="1">
          <mxGeometry x="100" y="250" width="100" height="80" as="geometry" />
        </mxCell>
      </root>
    </mxGraphModel>
  </diagram>
  <diagram id="2I1nUb8bJU8pfQnfdrd6" name="Page-5">
    <mxGraphModel dx="2085" dy="731" grid="1" gridSize="10" guides="1" tooltips="1" connect="1" arrows="1" fold="1" page="1" pageScale="1" pageWidth="850" pageHeight="1100" math="0" shadow="0">
      <root>
        <mxCell id="0" />
        <mxCell id="1" parent="0" />
        <mxCell id="w0nas1ESgpT51Y39yaOQ-1" value="&lt;font style=&quot;font-size: 24px;&quot;&gt;&lt;br&gt;Owner Inspects Customer Tyre&lt;br&gt;&lt;/font&gt;" style="text;html=1;align=center;verticalAlign=middle;resizable=0;points=[];autosize=1;strokeColor=none;fillColor=none;" parent="1" vertex="1">
          <mxGeometry x="90" y="160" width="350" height="70" as="geometry" />
        </mxCell>
        <mxCell id="w0nas1ESgpT51Y39yaOQ-2" value="&amp;lt;&amp;lt;Interface&amp;gt;&amp;gt;&lt;div&gt;inspect tyre&lt;/div&gt;" style="shape=umlLifeline;perimeter=lifelinePerimeter;whiteSpace=wrap;html=1;container=0;dropTarget=0;collapsible=0;recursiveResize=0;outlineConnect=0;portConstraint=eastwest;newEdgeStyle={&quot;edgeStyle&quot;:&quot;elbowEdgeStyle&quot;,&quot;elbow&quot;:&quot;vertical&quot;,&quot;curved&quot;:0,&quot;rounded&quot;:0};" parent="1" vertex="1">
          <mxGeometry x="110" y="275" width="100" height="885" as="geometry" />
        </mxCell>
        <mxCell id="w0nas1ESgpT51Y39yaOQ-3" value="" style="html=1;points=[];perimeter=orthogonalPerimeter;outlineConnect=0;targetShapes=umlLifeline;portConstraint=eastwest;newEdgeStyle={&quot;edgeStyle&quot;:&quot;elbowEdgeStyle&quot;,&quot;elbow&quot;:&quot;vertical&quot;,&quot;curved&quot;:0,&quot;rounded&quot;:0};" parent="w0nas1ESgpT51Y39yaOQ-2" vertex="1">
          <mxGeometry x="45" y="70" width="10" height="140" as="geometry" />
        </mxCell>
        <mxCell id="w0nas1ESgpT51Y39yaOQ-4" value="&amp;lt;&amp;lt;Controller&amp;gt;&amp;gt;&lt;div&gt;inspect tyre&lt;/div&gt;" style="shape=umlLifeline;perimeter=lifelinePerimeter;whiteSpace=wrap;html=1;container=0;dropTarget=0;collapsible=0;recursiveResize=0;outlineConnect=0;portConstraint=eastwest;newEdgeStyle={&quot;edgeStyle&quot;:&quot;elbowEdgeStyle&quot;,&quot;elbow&quot;:&quot;vertical&quot;,&quot;curved&quot;:0,&quot;rounded&quot;:0};" parent="1" vertex="1">
          <mxGeometry x="315" y="275" width="100" height="875" as="geometry" />
        </mxCell>
        <mxCell id="w0nas1ESgpT51Y39yaOQ-5" value="&lt;span style=&quot;color: rgba(0, 0, 0, 0); font-family: monospace; font-size: 0px; text-align: start;&quot;&gt;%3CmxGraphModel%3E%3Croot%3E%3CmxCell%20id%3D%220%22%2F%3E%3CmxCell%20id%3D%221%22%20parent%3D%220%22%2F%3E%3CmxCell%20id%3D%222%22%20value%3D%22Login%22%20style%3D%22html%3D1%3BverticalAlign%3Dbottom%3BendArrow%3Dblock%3BedgeStyle%3DelbowEdgeStyle%3Belbow%3Dvertical%3Bcurved%3D0%3Brounded%3D0%3B%22%20edge%3D%221%22%20parent%3D%221%22%3E%3CmxGeometry%20x%3D%22-0.1053%22%20relative%3D%221%22%20as%3D%22geometry%22%3E%3CmxPoint%20x%3D%22205%22%20y%3D%22160%22%20as%3D%22sourcePoint%22%2F%3E%3CArray%20as%3D%22points%22%3E%3CmxPoint%20x%3D%22300%22%20y%3D%22160%22%2F%3E%3C%2FArray%3E%3CmxPoint%20x%3D%22395%22%20y%3D%22160%22%20as%3D%22targetPoint%22%2F%3E%3CmxPoint%20as%3D%22offset%22%2F%3E%3C%2FmxGeometry%3E%3C%2FmxCell%3E%3C%2Froot%3E%3C%2FmxGraphModel%3E&lt;/span&gt;" style="html=1;points=[];perimeter=orthogonalPerimeter;outlineConnect=0;targetShapes=umlLifeline;portConstraint=eastwest;newEdgeStyle={&quot;edgeStyle&quot;:&quot;elbowEdgeStyle&quot;,&quot;elbow&quot;:&quot;vertical&quot;,&quot;curved&quot;:0,&quot;rounded&quot;:0};" parent="w0nas1ESgpT51Y39yaOQ-4" vertex="1">
          <mxGeometry x="45" y="130" width="10" height="70" as="geometry" />
        </mxCell>
        <mxCell id="w0nas1ESgpT51Y39yaOQ-6" value="" style="shape=umlLifeline;perimeter=lifelinePerimeter;whiteSpace=wrap;html=1;container=1;dropTarget=0;collapsible=0;recursiveResize=0;outlineConnect=0;portConstraint=eastwest;newEdgeStyle={&quot;curved&quot;:0,&quot;rounded&quot;:0};participant=umlActor;" parent="1" vertex="1">
          <mxGeometry x="-90" y="270" width="20" height="910" as="geometry" />
        </mxCell>
        <mxCell id="w0nas1ESgpT51Y39yaOQ-7" value="Agrees to service." style="html=1;verticalAlign=bottom;startArrow=oval;endArrow=block;startSize=8;edgeStyle=elbowEdgeStyle;elbow=horizontal;curved=0;rounded=0;" parent="1" source="w0nas1ESgpT51Y39yaOQ-6" target="w0nas1ESgpT51Y39yaOQ-2" edge="1">
          <mxGeometry x="-0.0436" y="5" relative="1" as="geometry">
            <mxPoint x="105" y="345" as="sourcePoint" />
            <Array as="points">
              <mxPoint x="70" y="620" />
              <mxPoint x="110" y="355" />
            </Array>
            <mxPoint as="offset" />
          </mxGeometry>
        </mxCell>
        <mxCell id="w0nas1ESgpT51Y39yaOQ-8" value="&amp;lt;&amp;lt;Entity&amp;gt;&amp;gt;&lt;div&gt;inspect tyre&lt;/div&gt;" style="shape=umlLifeline;perimeter=lifelinePerimeter;whiteSpace=wrap;html=1;container=1;dropTarget=0;collapsible=0;recursiveResize=0;outlineConnect=0;portConstraint=eastwest;newEdgeStyle={&quot;curved&quot;:0,&quot;rounded&quot;:0};" parent="1" vertex="1">
          <mxGeometry x="540" y="275" width="100" height="865" as="geometry" />
        </mxCell>
        <mxCell id="w0nas1ESgpT51Y39yaOQ-9" value="" style="html=1;points=[];perimeter=orthogonalPerimeter;outlineConnect=0;targetShapes=umlLifeline;portConstraint=eastwest;newEdgeStyle={&quot;edgeStyle&quot;:&quot;elbowEdgeStyle&quot;,&quot;elbow&quot;:&quot;vertical&quot;,&quot;curved&quot;:0,&quot;rounded&quot;:0};" parent="w0nas1ESgpT51Y39yaOQ-8" vertex="1">
          <mxGeometry x="45" y="130" width="10" height="50" as="geometry" />
        </mxCell>
        <mxCell id="w0nas1ESgpT51Y39yaOQ-10" style="edgeStyle=elbowEdgeStyle;rounded=0;orthogonalLoop=1;jettySize=auto;html=1;elbow=vertical;curved=0;" parent="w0nas1ESgpT51Y39yaOQ-8" source="w0nas1ESgpT51Y39yaOQ-9" target="w0nas1ESgpT51Y39yaOQ-8" edge="1">
          <mxGeometry relative="1" as="geometry">
            <mxPoint x="120" y="180" as="targetPoint" />
            <Array as="points">
              <mxPoint x="70" y="130" />
            </Array>
          </mxGeometry>
        </mxCell>
        <mxCell id="w0nas1ESgpT51Y39yaOQ-11" value="Sends request for tyre inspection." style="html=1;verticalAlign=bottom;endArrow=block;edgeStyle=elbowEdgeStyle;elbow=vertical;curved=0;rounded=0;" parent="1" source="w0nas1ESgpT51Y39yaOQ-3" target="w0nas1ESgpT51Y39yaOQ-5" edge="1">
          <mxGeometry x="-0.1035" relative="1" as="geometry">
            <mxPoint x="180.0000000000001" y="405" as="sourcePoint" />
            <Array as="points">
              <mxPoint x="270" y="405" />
            </Array>
            <mxPoint x="360" y="405" as="targetPoint" />
            <mxPoint as="offset" />
          </mxGeometry>
        </mxCell>
        <mxCell id="w0nas1ESgpT51Y39yaOQ-12" value="" style="html=1;verticalAlign=bottom;endArrow=block;edgeStyle=elbowEdgeStyle;elbow=horizontal;curved=0;rounded=0;" parent="1" source="w0nas1ESgpT51Y39yaOQ-5" target="w0nas1ESgpT51Y39yaOQ-8" edge="1">
          <mxGeometry x="-0.1053" relative="1" as="geometry">
            <mxPoint x="350" y="415" as="sourcePoint" />
            <Array as="points">
              <mxPoint x="445" y="415" />
            </Array>
            <mxPoint x="540" y="415" as="targetPoint" />
            <mxPoint as="offset" />
          </mxGeometry>
        </mxCell>
        <mxCell id="w0nas1ESgpT51Y39yaOQ-13" value="Responds with repair status (Yes/No)." style="html=1;verticalAlign=bottom;endArrow=open;dashed=1;endSize=8;curved=0;rounded=0;" parent="1" edge="1">
          <mxGeometry x="0.142" y="-1" relative="1" as="geometry">
            <mxPoint x="585.08" y="445" as="sourcePoint" />
            <mxPoint x="374.91333333333324" y="445" as="targetPoint" />
            <Array as="points" />
            <mxPoint as="offset" />
          </mxGeometry>
        </mxCell>
        <mxCell id="w0nas1ESgpT51Y39yaOQ-15" value="Customer" style="text;html=1;align=center;verticalAlign=middle;whiteSpace=wrap;rounded=0;" parent="1" vertex="1">
          <mxGeometry x="-110" y="300" width="60" height="30" as="geometry" />
        </mxCell>
        <mxCell id="w0nas1ESgpT51Y39yaOQ-17" style="edgeStyle=orthogonalEdgeStyle;rounded=0;orthogonalLoop=1;jettySize=auto;html=1;exitX=0.5;exitY=1;exitDx=0;exitDy=0;" parent="1" edge="1">
          <mxGeometry relative="1" as="geometry">
            <mxPoint x="810.0000000000002" y="330" as="sourcePoint" />
            <mxPoint x="810.0000000000002" y="330" as="targetPoint" />
          </mxGeometry>
        </mxCell>
        <mxCell id="w0nas1ESgpT51Y39yaOQ-18" value="Requests to check if the tyre can be repaired." style="text;html=1;align=center;verticalAlign=middle;whiteSpace=wrap;rounded=0;" parent="1" vertex="1">
          <mxGeometry x="390" y="385" width="180" height="30" as="geometry" />
        </mxCell>
        <mxCell id="7EdQZbVfiKlCyIA12RRn-1" value="IF" style="shape=umlFrame;whiteSpace=wrap;html=1;pointerEvents=0;" parent="1" vertex="1">
          <mxGeometry x="-160" y="510" width="770" height="330" as="geometry" />
        </mxCell>
        <mxCell id="7EdQZbVfiKlCyIA12RRn-2" value="" style="endArrow=open;endFill=1;endSize=12;html=1;rounded=0;" parent="1" target="w0nas1ESgpT51Y39yaOQ-8" edge="1">
          <mxGeometry width="160" relative="1" as="geometry">
            <mxPoint x="360" y="550" as="sourcePoint" />
            <mxPoint x="585.1099999999999" y="550" as="targetPoint" />
          </mxGeometry>
        </mxCell>
        <mxCell id="7EdQZbVfiKlCyIA12RRn-3" value="Calculates service estimate." style="text;html=1;align=center;verticalAlign=middle;whiteSpace=wrap;rounded=0;" parent="1" vertex="1">
          <mxGeometry x="370" y="530" width="190" height="30" as="geometry" />
        </mxCell>
        <mxCell id="7EdQZbVfiKlCyIA12RRn-5" value="&lt;li&gt;Displays service estimate to the customer.&lt;/li&gt;" style="html=1;verticalAlign=bottom;endArrow=open;dashed=1;endSize=8;curved=0;rounded=0;" parent="1" source="w0nas1ESgpT51Y39yaOQ-8" edge="1">
          <mxGeometry x="0.139" y="-1" relative="1" as="geometry">
            <mxPoint x="580.1700000000001" y="580" as="sourcePoint" />
            <mxPoint x="370.0033333333332" y="580" as="targetPoint" />
            <Array as="points" />
            <mxPoint as="offset" />
          </mxGeometry>
        </mxCell>
        <mxCell id="7EdQZbVfiKlCyIA12RRn-7" value="Walks into the shop and requests tyre inspection." style="html=1;verticalAlign=bottom;startArrow=oval;endArrow=block;startSize=8;edgeStyle=elbowEdgeStyle;elbow=horizontal;curved=0;rounded=0;" parent="1" edge="1">
          <mxGeometry x="-0.0436" y="5" relative="1" as="geometry">
            <mxPoint x="-71" y="365" as="sourcePoint" />
            <Array as="points">
              <mxPoint x="120" y="365" />
            </Array>
            <mxPoint as="offset" />
            <mxPoint x="165" y="365" as="targetPoint" />
          </mxGeometry>
        </mxCell>
        <mxCell id="7EdQZbVfiKlCyIA12RRn-8" value="" style="endArrow=open;endFill=1;endSize=12;html=1;rounded=0;" parent="1" source="w0nas1ESgpT51Y39yaOQ-4" edge="1">
          <mxGeometry width="160" relative="1" as="geometry">
            <mxPoint x="430" y="650" as="sourcePoint" />
            <mxPoint x="590" y="650" as="targetPoint" />
          </mxGeometry>
        </mxCell>
        <mxCell id="7EdQZbVfiKlCyIA12RRn-9" value="Records agreed service details." style="text;html=1;align=center;verticalAlign=middle;whiteSpace=wrap;rounded=0;" parent="1" vertex="1">
          <mxGeometry x="360" y="630" width="240" height="30" as="geometry" />
        </mxCell>
        <mxCell id="7EdQZbVfiKlCyIA12RRn-10" value="&lt;li&gt; Provides repair options.&lt;/li&gt;" style="html=1;verticalAlign=bottom;endArrow=open;dashed=1;endSize=8;curved=0;rounded=0;" parent="1" edge="1">
          <mxGeometry relative="1" as="geometry">
            <mxPoint x="370" y="680" as="sourcePoint" />
            <mxPoint x="150.00333333333322" y="680" as="targetPoint" />
            <Array as="points" />
            <mxPoint as="offset" />
          </mxGeometry>
        </mxCell>
        <mxCell id="7EdQZbVfiKlCyIA12RRn-11" value="Can the Tyre Be Repaired?" style="text;html=1;align=center;verticalAlign=middle;whiteSpace=wrap;rounded=0;" parent="1" vertex="1">
          <mxGeometry x="-90" y="510" width="190" height="30" as="geometry" />
        </mxCell>
        <mxCell id="7EdQZbVfiKlCyIA12RRn-12" value="" style="endArrow=none;html=1;rounded=0;exitX=0.001;exitY=0.607;exitDx=0;exitDy=0;exitPerimeter=0;" parent="1" source="7EdQZbVfiKlCyIA12RRn-1" edge="1">
          <mxGeometry width="50" height="50" relative="1" as="geometry">
            <mxPoint x="560" y="760" as="sourcePoint" />
            <mxPoint x="610" y="710" as="targetPoint" />
          </mxGeometry>
        </mxCell>
        <mxCell id="7EdQZbVfiKlCyIA12RRn-13" value="Can not the Tyre Be Repaired?" style="text;html=1;align=center;verticalAlign=middle;whiteSpace=wrap;rounded=0;" parent="1" vertex="1">
          <mxGeometry x="-90" y="710" width="190" height="30" as="geometry" />
        </mxCell>
        <mxCell id="7EdQZbVfiKlCyIA12RRn-14" value="Notifies the customer that&lt;div&gt;&amp;nbsp;the tyre cannot be repaired.&lt;/div&gt;" style="text;whiteSpace=wrap;html=1;" parent="1" vertex="1">
          <mxGeometry x="180" y="750" width="170" height="40" as="geometry" />
        </mxCell>
        <mxCell id="7EdQZbVfiKlCyIA12RRn-15" value="" style="endArrow=classic;html=1;rounded=0;" parent="1" edge="1">
          <mxGeometry width="50" height="50" relative="1" as="geometry">
            <mxPoint x="359.9999999999998" y="770" as="sourcePoint" />
            <mxPoint x="154.46153846153834" y="770" as="targetPoint" />
          </mxGeometry>
        </mxCell>
        <mxCell id="7EdQZbVfiKlCyIA12RRn-16" value="IF" style="shape=umlFrame;whiteSpace=wrap;html=1;pointerEvents=0;" parent="1" vertex="1">
          <mxGeometry x="-170" y="900" width="790" height="200" as="geometry" />
        </mxCell>
        <mxCell id="7EdQZbVfiKlCyIA12RRn-17" value="Is the Customer Registered?" style="text;whiteSpace=wrap;html=1;" parent="1" vertex="1">
          <mxGeometry x="-80" y="960" width="190" height="40" as="geometry" />
        </mxCell>
        <mxCell id="7EdQZbVfiKlCyIA12RRn-18" value="Requests customer registration." style="text;whiteSpace=wrap;html=1;" parent="1" vertex="1">
          <mxGeometry x="174.55" y="970" width="200" height="40" as="geometry" />
        </mxCell>
        <mxCell id="7EdQZbVfiKlCyIA12RRn-19" value="" style="endArrow=open;endFill=1;endSize=12;html=1;rounded=0;entryX=0.941;entryY=0.995;entryDx=0;entryDy=0;entryPerimeter=0;" parent="1" edge="1">
          <mxGeometry width="160" relative="1" as="geometry">
            <mxPoint x="155.45000000000002" y="1002.2" as="sourcePoint" />
            <mxPoint x="363.65000000000003" y="1001" as="targetPoint" />
            <Array as="points">
              <mxPoint x="265.45" y="1001.2" />
            </Array>
          </mxGeometry>
        </mxCell>
        <mxCell id="7EdQZbVfiKlCyIA12RRn-20" value="" style="endArrow=none;html=1;rounded=0;entryX=1.003;entryY=0.358;entryDx=0;entryDy=0;entryPerimeter=0;exitX=0.003;exitY=0.324;exitDx=0;exitDy=0;exitPerimeter=0;" parent="1" edge="1">
          <mxGeometry width="50" height="50" relative="1" as="geometry">
            <mxPoint x="-170.0000000000001" y="953.1999999999999" as="sourcePoint" />
            <mxPoint x="619.9999999999999" y="959.9999999999999" as="targetPoint" />
          </mxGeometry>
        </mxCell>
        <mxCell id="7EdQZbVfiKlCyIA12RRn-21" value=" Registers the customer." style="text;whiteSpace=wrap;html=1;" parent="1" vertex="1">
          <mxGeometry x="400" y="1010" width="200" height="40" as="geometry" />
        </mxCell>
        <mxCell id="7EdQZbVfiKlCyIA12RRn-24" value="" style="endArrow=classic;html=1;rounded=0;" parent="1" target="w0nas1ESgpT51Y39yaOQ-8" edge="1">
          <mxGeometry width="50" height="50" relative="1" as="geometry">
            <mxPoint x="370" y="1040" as="sourcePoint" />
            <mxPoint x="420" y="990" as="targetPoint" />
          </mxGeometry>
        </mxCell>
        <mxCell id="stCjOr4ygXrG_VBHp17A-4" value="" style="rounded=0;whiteSpace=wrap;html=1;strokeColor=#FFFFFF;" vertex="1" parent="1">
          <mxGeometry x="100" y="260" width="120" height="60" as="geometry" />
        </mxCell>
        <mxCell id="stCjOr4ygXrG_VBHp17A-5" value="" style="rounded=0;whiteSpace=wrap;html=1;strokeColor=#FFFFFF;" vertex="1" parent="1">
          <mxGeometry x="530" y="260" width="120" height="60" as="geometry" />
        </mxCell>
        <mxCell id="stCjOr4ygXrG_VBHp17A-6" value="" style="rounded=0;whiteSpace=wrap;html=1;strokeColor=#FFFFFF;" vertex="1" parent="1">
          <mxGeometry x="300" y="260" width="120" height="60" as="geometry" />
        </mxCell>
        <mxCell id="stCjOr4ygXrG_VBHp17A-3" value="&amp;lt;&amp;lt;Entity&amp;gt;&amp;gt;&lt;div&gt;inspect tyre&lt;/div&gt;" style="ellipse;shape=umlEntity;whiteSpace=wrap;html=1;" vertex="1" parent="1">
          <mxGeometry x="550" y="250" width="80" height="80" as="geometry" />
        </mxCell>
        <mxCell id="stCjOr4ygXrG_VBHp17A-2" value="&amp;lt;&amp;lt;Controller&amp;gt;&amp;gt;&lt;div&gt;inspect tyre&lt;/div&gt;" style="ellipse;shape=umlControl;whiteSpace=wrap;html=1;" vertex="1" parent="1">
          <mxGeometry x="326" y="240" width="89" height="90" as="geometry" />
        </mxCell>
        <mxCell id="stCjOr4ygXrG_VBHp17A-1" value="&amp;lt;&amp;lt;Interface&amp;gt;&amp;gt;&lt;div&gt;inspect tyre&lt;/div&gt;" style="shape=umlBoundary;whiteSpace=wrap;html=1;" vertex="1" parent="1">
          <mxGeometry x="110" y="250" width="100" height="80" as="geometry" />
        </mxCell>
      </root>
    </mxGraphModel>
  </diagram>
  <diagram id="NcM0TBZ8Y5sNef4G0kca" name="Page-6">
    <mxGraphModel dx="2600" dy="1035" grid="1" gridSize="10" guides="1" tooltips="1" connect="1" arrows="1" fold="1" page="1" pageScale="1" pageWidth="850" pageHeight="1100" math="0" shadow="0">
      <root>
        <mxCell id="0" />
        <mxCell id="1" parent="0" />
        <mxCell id="tpqwm_fqkTFnKwdVIeko-1" value="&lt;font style=&quot;font-size: 24px;&quot;&gt;Payment &amp;amp; Digital Invoice&lt;/font&gt;" style="text;whiteSpace=wrap;html=1;" parent="1" vertex="1">
          <mxGeometry x="220" y="50" width="340" height="40" as="geometry" />
        </mxCell>
        <mxCell id="rDr7T7Qx_g_HeSPai4KZ-1" value="&amp;lt;&amp;lt;Interface&amp;gt;&amp;gt;&lt;div&gt;payment &amp;amp; Digital invoice&lt;/div&gt;" style="shape=umlLifeline;perimeter=lifelinePerimeter;whiteSpace=wrap;html=1;container=0;dropTarget=0;collapsible=0;recursiveResize=0;outlineConnect=0;portConstraint=eastwest;newEdgeStyle={&quot;edgeStyle&quot;:&quot;elbowEdgeStyle&quot;,&quot;elbow&quot;:&quot;vertical&quot;,&quot;curved&quot;:0,&quot;rounded&quot;:0};" parent="1" vertex="1">
          <mxGeometry x="180" y="270" width="100" height="580" as="geometry" />
        </mxCell>
        <mxCell id="rDr7T7Qx_g_HeSPai4KZ-2" value="" style="html=1;points=[];perimeter=orthogonalPerimeter;outlineConnect=0;targetShapes=umlLifeline;portConstraint=eastwest;newEdgeStyle={&quot;edgeStyle&quot;:&quot;elbowEdgeStyle&quot;,&quot;elbow&quot;:&quot;vertical&quot;,&quot;curved&quot;:0,&quot;rounded&quot;:0};" parent="rDr7T7Qx_g_HeSPai4KZ-1" vertex="1">
          <mxGeometry x="45" y="70" width="10" height="160" as="geometry" />
        </mxCell>
        <mxCell id="rDr7T7Qx_g_HeSPai4KZ-3" value="&amp;lt;&amp;lt;Controller&amp;gt;&amp;gt;&lt;div&gt;payment &amp;amp; Digital invoice&lt;br&gt;&lt;/div&gt;" style="shape=umlLifeline;perimeter=lifelinePerimeter;whiteSpace=wrap;html=1;container=0;dropTarget=0;collapsible=0;recursiveResize=0;outlineConnect=0;portConstraint=eastwest;newEdgeStyle={&quot;edgeStyle&quot;:&quot;elbowEdgeStyle&quot;,&quot;elbow&quot;:&quot;vertical&quot;,&quot;curved&quot;:0,&quot;rounded&quot;:0};" parent="1" vertex="1">
          <mxGeometry x="390" y="280" width="100" height="570" as="geometry" />
        </mxCell>
        <mxCell id="rDr7T7Qx_g_HeSPai4KZ-4" value="&lt;span style=&quot;color: rgba(0, 0, 0, 0); font-family: monospace; font-size: 0px; text-align: start;&quot;&gt;%3CmxGraphModel%3E%3Croot%3E%3CmxCell%20id%3D%220%22%2F%3E%3CmxCell%20id%3D%221%22%20parent%3D%220%22%2F%3E%3CmxCell%20id%3D%222%22%20value%3D%22Login%22%20style%3D%22html%3D1%3BverticalAlign%3Dbottom%3BendArrow%3Dblock%3BedgeStyle%3DelbowEdgeStyle%3Belbow%3Dvertical%3Bcurved%3D0%3Brounded%3D0%3B%22%20edge%3D%221%22%20parent%3D%221%22%3E%3CmxGeometry%20x%3D%22-0.1053%22%20relative%3D%221%22%20as%3D%22geometry%22%3E%3CmxPoint%20x%3D%22205%22%20y%3D%22160%22%20as%3D%22sourcePoint%22%2F%3E%3CArray%20as%3D%22points%22%3E%3CmxPoint%20x%3D%22300%22%20y%3D%22160%22%2F%3E%3C%2FArray%3E%3CmxPoint%20x%3D%22395%22%20y%3D%22160%22%20as%3D%22targetPoint%22%2F%3E%3CmxPoint%20as%3D%22offset%22%2F%3E%3C%2FmxGeometry%3E%3C%2FmxCell%3E%3C%2Froot%3E%3C%2FmxGraphModel%3E&lt;/span&gt;" style="html=1;points=[];perimeter=orthogonalPerimeter;outlineConnect=0;targetShapes=umlLifeline;portConstraint=eastwest;newEdgeStyle={&quot;edgeStyle&quot;:&quot;elbowEdgeStyle&quot;,&quot;elbow&quot;:&quot;vertical&quot;,&quot;curved&quot;:0,&quot;rounded&quot;:0};" parent="rDr7T7Qx_g_HeSPai4KZ-3" vertex="1">
          <mxGeometry x="45" y="80" width="10" height="330" as="geometry" />
        </mxCell>
        <mxCell id="rDr7T7Qx_g_HeSPai4KZ-5" value="sends payment request and cash details" style="html=1;verticalAlign=bottom;endArrow=block;edgeStyle=elbowEdgeStyle;elbow=vertical;curved=0;rounded=0;" parent="1" source="rDr7T7Qx_g_HeSPai4KZ-25" edge="1">
          <mxGeometry x="-0.002" relative="1" as="geometry">
            <mxPoint x="245.0000000000001" y="390" as="sourcePoint" />
            <Array as="points" />
            <mxPoint x="435" y="390" as="targetPoint" />
            <mxPoint as="offset" />
          </mxGeometry>
        </mxCell>
        <mxCell id="rDr7T7Qx_g_HeSPai4KZ-6" value="" style="shape=umlLifeline;perimeter=lifelinePerimeter;whiteSpace=wrap;html=1;container=1;dropTarget=0;collapsible=0;recursiveResize=0;outlineConnect=0;portConstraint=eastwest;newEdgeStyle={&quot;curved&quot;:0,&quot;rounded&quot;:0};participant=umlActor;size=40;" parent="1" vertex="1">
          <mxGeometry x="-10" y="270" width="20" height="580" as="geometry" />
        </mxCell>
        <mxCell id="rDr7T7Qx_g_HeSPai4KZ-7" value="" style="html=1;verticalAlign=bottom;startArrow=oval;endArrow=block;startSize=8;edgeStyle=elbowEdgeStyle;elbow=vertical;curved=0;rounded=0;" parent="1" source="rDr7T7Qx_g_HeSPai4KZ-6" target="rDr7T7Qx_g_HeSPai4KZ-2" edge="1">
          <mxGeometry x="0.0682" relative="1" as="geometry">
            <mxPoint x="175" y="340" as="sourcePoint" />
            <Array as="points">
              <mxPoint x="180" y="350" />
            </Array>
            <mxPoint as="offset" />
          </mxGeometry>
        </mxCell>
        <mxCell id="rDr7T7Qx_g_HeSPai4KZ-8" value="&amp;lt;&amp;lt;Entity&amp;gt;&amp;gt;&lt;div&gt;payment &amp;amp; Digital invoice&lt;br&gt;&lt;/div&gt;" style="shape=umlLifeline;perimeter=lifelinePerimeter;whiteSpace=wrap;html=1;container=1;dropTarget=0;collapsible=0;recursiveResize=0;outlineConnect=0;portConstraint=eastwest;newEdgeStyle={&quot;curved&quot;:0,&quot;rounded&quot;:0};" parent="1" vertex="1">
          <mxGeometry x="700" y="275" width="100" height="580" as="geometry" />
        </mxCell>
        <mxCell id="rDr7T7Qx_g_HeSPai4KZ-9" value="" style="html=1;points=[];perimeter=orthogonalPerimeter;outlineConnect=0;targetShapes=umlLifeline;portConstraint=eastwest;newEdgeStyle={&quot;edgeStyle&quot;:&quot;elbowEdgeStyle&quot;,&quot;elbow&quot;:&quot;vertical&quot;,&quot;curved&quot;:0,&quot;rounded&quot;:0};" parent="rDr7T7Qx_g_HeSPai4KZ-8" vertex="1">
          <mxGeometry x="45" y="130" width="10" height="320" as="geometry" />
        </mxCell>
        <mxCell id="rDr7T7Qx_g_HeSPai4KZ-10" value="Updates financial records to reflect the cash payment." style="html=1;verticalAlign=bottom;endArrow=block;edgeStyle=elbowEdgeStyle;elbow=vertical;curved=0;rounded=0;" parent="1" source="rDr7T7Qx_g_HeSPai4KZ-4" target="rDr7T7Qx_g_HeSPai4KZ-8" edge="1">
          <mxGeometry x="-0.107" relative="1" as="geometry">
            <mxPoint x="420" y="410" as="sourcePoint" />
            <Array as="points">
              <mxPoint x="515" y="410" />
            </Array>
            <mxPoint x="610" y="410" as="targetPoint" />
            <mxPoint as="offset" />
          </mxGeometry>
        </mxCell>
        <mxCell id="rDr7T7Qx_g_HeSPai4KZ-13" value=" Generates a digital invoice" style="html=1;verticalAlign=bottom;endArrow=open;dashed=1;endSize=8;curved=0;rounded=0;" parent="1" source="rDr7T7Qx_g_HeSPai4KZ-8" edge="1">
          <mxGeometry x="0.0017" relative="1" as="geometry">
            <mxPoint x="640" y="440" as="sourcePoint" />
            <mxPoint x="450" y="440" as="targetPoint" />
            <mxPoint as="offset" />
          </mxGeometry>
        </mxCell>
        <mxCell id="rDr7T7Qx_g_HeSPai4KZ-20" value="" style="endArrow=classic;html=1;rounded=0;" parent="1" edge="1">
          <mxGeometry width="50" height="50" relative="1" as="geometry">
            <mxPoint x="439.94999999999976" y="620.0000000000002" as="sourcePoint" />
            <mxPoint x="229.99761904761903" y="620.0000000000002" as="targetPoint" />
          </mxGeometry>
        </mxCell>
        <mxCell id="rDr7T7Qx_g_HeSPai4KZ-21" value="Displays the generated invoice to the owner." style="text;html=1;align=center;verticalAlign=middle;whiteSpace=wrap;rounded=0;" parent="1" vertex="1">
          <mxGeometry x="280" y="600" width="124.55" height="30" as="geometry" />
        </mxCell>
        <mxCell id="rDr7T7Qx_g_HeSPai4KZ-23" value="&lt;span style=&quot;color: rgba(0, 0, 0, 0); font-family: monospace; font-size: 0px; text-align: start; text-wrap: nowrap;&quot;&gt;%3CmxGraphModel%3E%3Croot%3E%3CmxCell%20id%3D%220%22%2F%3E%3CmxCell%20id%3D%221%22%20parent%3D%220%22%2F%3E%3CmxCell%20id%3D%222%22%20value%3D%22Show%20from%22%20style%3D%22html%3D1%3BverticalAlign%3Dbottom%3BendArrow%3Dopen%3Bdashed%3D1%3BendSize%3D8%3Bcurved%3D0%3Brounded%3D0%3B%22%20edge%3D%221%22%20parent%3D%221%22%3E%3CmxGeometry%20x%3D%220.0631%22%20y%3D%22-10%22%20relative%3D%221%22%20as%3D%22geometry%22%3E%3CmxPoint%20x%3D%22220%22%20y%3D%22390%22%20as%3D%22sourcePoint%22%2F%3E%3CmxPoint%20x%3D%2269.5%22%20y%3D%22390%22%20as%3D%22targetPoint%22%2F%3E%3CArray%20as%3D%22points%22%3E%3CmxPoint%20x%3D%22150%22%20y%3D%22390%22%2F%3E%3C%2FArray%3E%3CmxPoint%20as%3D%22offset%22%2F%3E%3C%2FmxGeometry%3E%3C%2FmxCell%3E%3C%2Froot%3E%3C%2FmxGraphModel%3E&lt;/span&gt;&lt;span style=&quot;color: rgba(0, 0, 0, 0); font-family: monospace; font-size: 0px; text-align: start; text-wrap: nowrap;&quot;&gt;%3CmxGraphModel%3E%3Croot%3E%3CmxCell%20id%3D%220%22%2F%3E%3CmxCell%20id%3D%221%22%20parent%3D%220%22%2F%3E%3CmxCell%20id%3D%222%22%20value%3D%22Show%20from%22%20style%3D%22html%3D1%3BverticalAlign%3Dbottom%3BendArrow%3Dopen%3Bdashed%3D1%3BendSize%3D8%3Bcurved%3D0%3Brounded%3D0%3B%22%20edge%3D%221%22%20parent%3D%221%22%3E%3CmxGeometry%20x%3D%220.0631%22%20y%3D%22-10%22%20relative%3D%221%22%20as%3D%22geometry%22%3E%3CmxPoint%20x%3D%22220%22%20y%3D%22390%22%20as%3D%22sourcePoint%22%2F%3E%3CmxPoint%20x%3D%2269.5%22%20y%3D%22390%22%20as%3D%22targetPoint%22%2F%3E%3CArray%20as%3D%22points%22%3E%3CmxPoint%20x%3D%22150%22%20y%3D%22390%22%2F%3E%3C%2FArray%3E%3CmxPoint%20as%3D%22offset%22%2F%3E%3C%2FmxGeometry%3E%3C%2FmxCell%3E%3C%2Froot%3E%3C%2FmxGraphModel%3E&lt;/span&gt;" style="text;html=1;align=center;verticalAlign=middle;whiteSpace=wrap;rounded=0;" parent="1" vertex="1">
          <mxGeometry x="90" y="320" width="60" height="30" as="geometry" />
        </mxCell>
        <mxCell id="rDr7T7Qx_g_HeSPai4KZ-24" value="&lt;br style=&quot;font-size: 11px; text-wrap: nowrap;&quot;&gt;&lt;span style=&quot;font-size: 11px; text-wrap: nowrap; background-color: rgb(255, 255, 255);&quot;&gt;Walks into the shop and initiates payment.&lt;/span&gt;" style="text;html=1;align=center;verticalAlign=middle;whiteSpace=wrap;rounded=0;" parent="1" vertex="1">
          <mxGeometry x="90" y="320" width="60" height="30" as="geometry" />
        </mxCell>
        <mxCell id="rDr7T7Qx_g_HeSPai4KZ-25" value="" style="shape=umlLifeline;perimeter=lifelinePerimeter;whiteSpace=wrap;html=1;container=1;dropTarget=0;collapsible=0;recursiveResize=0;outlineConnect=0;portConstraint=eastwest;newEdgeStyle={&quot;curved&quot;:0,&quot;rounded&quot;:0};participant=umlActor;size=40;" parent="1" vertex="1">
          <mxGeometry x="-120" y="275" width="20" height="580" as="geometry" />
        </mxCell>
        <mxCell id="rDr7T7Qx_g_HeSPai4KZ-26" value="Customer" style="text;html=1;align=center;verticalAlign=middle;whiteSpace=wrap;rounded=0;" parent="1" vertex="1">
          <mxGeometry x="-30" y="300" width="60" height="30" as="geometry" />
        </mxCell>
        <mxCell id="rDr7T7Qx_g_HeSPai4KZ-27" value="Owner" style="text;html=1;align=center;verticalAlign=middle;whiteSpace=wrap;rounded=0;" parent="1" vertex="1">
          <mxGeometry x="-140" y="310" width="60" height="30" as="geometry" />
        </mxCell>
        <mxCell id="rDr7T7Qx_g_HeSPai4KZ-28" value="" style="endArrow=classic;html=1;rounded=0;" parent="1" source="rDr7T7Qx_g_HeSPai4KZ-25" edge="1">
          <mxGeometry width="50" height="50" relative="1" as="geometry">
            <mxPoint x="190" y="720" as="sourcePoint" />
            <mxPoint x="230" y="670" as="targetPoint" />
          </mxGeometry>
        </mxCell>
        <mxCell id="rDr7T7Qx_g_HeSPai4KZ-29" value="Requests to print the invoice." style="text;whiteSpace=wrap;html=1;" parent="1" vertex="1">
          <mxGeometry x="-30" y="640" width="190" height="40" as="geometry" />
        </mxCell>
        <mxCell id="rDr7T7Qx_g_HeSPai4KZ-31" value="Sends a print request" style="text;whiteSpace=wrap;html=1;" parent="1" vertex="1">
          <mxGeometry x="254.55" y="690" width="150" height="40" as="geometry" />
        </mxCell>
        <mxCell id="rDr7T7Qx_g_HeSPai4KZ-32" value="" style="endArrow=classic;html=1;rounded=0;" parent="1" source="rDr7T7Qx_g_HeSPai4KZ-1" edge="1">
          <mxGeometry width="50" height="50" relative="1" as="geometry">
            <mxPoint x="390" y="770" as="sourcePoint" />
            <mxPoint x="440" y="720" as="targetPoint" />
          </mxGeometry>
        </mxCell>
        <mxCell id="rDr7T7Qx_g_HeSPai4KZ-33" value="Processes the print request." style="text;whiteSpace=wrap;html=1;" parent="1" vertex="1">
          <mxGeometry x="550" y="760" width="180" height="40" as="geometry" />
        </mxCell>
        <mxCell id="rDr7T7Qx_g_HeSPai4KZ-35" value="" style="endArrow=classic;html=1;rounded=0;" parent="1" edge="1">
          <mxGeometry width="50" height="50" relative="1" as="geometry">
            <mxPoint x="439.07142857142844" y="779.29" as="sourcePoint" />
            <mxPoint x="749.5" y="779.29" as="targetPoint" />
          </mxGeometry>
        </mxCell>
        <mxCell id="rDr7T7Qx_g_HeSPai4KZ-37" value="" style="html=1;verticalAlign=bottom;endArrow=open;dashed=1;endSize=8;curved=0;rounded=0;" parent="1" target="rDr7T7Qx_g_HeSPai4KZ-1" edge="1">
          <mxGeometry x="-0.0001" relative="1" as="geometry">
            <mxPoint x="440" y="810" as="sourcePoint" />
            <mxPoint x="360" y="810" as="targetPoint" />
            <mxPoint as="offset" />
          </mxGeometry>
        </mxCell>
        <mxCell id="rDr7T7Qx_g_HeSPai4KZ-38" value="Notifies that the invoice is printed." style="text;html=1;align=center;verticalAlign=middle;whiteSpace=wrap;rounded=0;" parent="1" vertex="1">
          <mxGeometry x="220" y="780" width="245" height="30" as="geometry" />
        </mxCell>
        <mxCell id="rDr7T7Qx_g_HeSPai4KZ-41" value="" style="html=1;verticalAlign=bottom;endArrow=open;dashed=1;endSize=8;curved=0;rounded=0;" parent="1" edge="1">
          <mxGeometry relative="1" as="geometry">
            <mxPoint x="220.67" y="840" as="sourcePoint" />
            <mxPoint x="-9.996666666666743" y="840" as="targetPoint" />
          </mxGeometry>
        </mxCell>
        <mxCell id="rDr7T7Qx_g_HeSPai4KZ-42" value="&lt;span style=&quot;text-align: left;&quot;&gt;Hands over the printed invoice.&lt;/span&gt;" style="text;html=1;align=center;verticalAlign=middle;whiteSpace=wrap;rounded=0;" parent="1" vertex="1">
          <mxGeometry x="-20" y="810" width="270" height="30" as="geometry" />
        </mxCell>
        <mxCell id="-a3fZTItPD8Ijq-lQDTn-4" value="" style="rounded=0;whiteSpace=wrap;html=1;strokeColor=#FFFFFF;" vertex="1" parent="1">
          <mxGeometry x="170" y="250" width="120" height="60" as="geometry" />
        </mxCell>
        <mxCell id="-a3fZTItPD8Ijq-lQDTn-5" value="" style="rounded=0;whiteSpace=wrap;html=1;strokeColor=#FFFFFF;" vertex="1" parent="1">
          <mxGeometry x="390" y="260" width="120" height="60" as="geometry" />
        </mxCell>
        <mxCell id="-a3fZTItPD8Ijq-lQDTn-6" value="" style="rounded=0;whiteSpace=wrap;html=1;strokeColor=#FFFFFF;" vertex="1" parent="1">
          <mxGeometry x="690" y="260" width="120" height="60" as="geometry" />
        </mxCell>
        <mxCell id="-a3fZTItPD8Ijq-lQDTn-1" value="&amp;lt;&amp;lt;Interface&amp;gt;&amp;gt;&lt;div&gt;payment &amp;amp; Digital invoice&lt;/div&gt;" style="shape=umlBoundary;whiteSpace=wrap;html=1;" vertex="1" parent="1">
          <mxGeometry x="170" y="240" width="100" height="80" as="geometry" />
        </mxCell>
        <mxCell id="-a3fZTItPD8Ijq-lQDTn-2" value="&amp;lt;&amp;lt;Controller&amp;gt;&amp;gt;&lt;div&gt;payment &amp;amp; Digital invoice&lt;/div&gt;" style="ellipse;shape=umlControl;whiteSpace=wrap;html=1;" vertex="1" parent="1">
          <mxGeometry x="405" y="240" width="70" height="80" as="geometry" />
        </mxCell>
        <mxCell id="-a3fZTItPD8Ijq-lQDTn-3" value="&amp;lt;&amp;lt;Entity&amp;gt;&amp;gt;&lt;div&gt;payment &amp;amp; Digital invoice&lt;/div&gt;" style="ellipse;shape=umlEntity;whiteSpace=wrap;html=1;" vertex="1" parent="1">
          <mxGeometry x="710" y="240" width="80" height="80" as="geometry" />
        </mxCell>
      </root>
    </mxGraphModel>
  </diagram>
  <diagram id="vB4_jgBVm9zps0FtBlji" name="Page-7">
    <mxGraphModel dx="1105" dy="1754" grid="1" gridSize="10" guides="1" tooltips="1" connect="1" arrows="1" fold="1" page="1" pageScale="1" pageWidth="850" pageHeight="1100" math="0" shadow="0">
      <root>
        <mxCell id="0" />
        <mxCell id="1" parent="0" />
        <mxCell id="rDqovZIItzJBR6Cu0OsC-1" value="&lt;font style=&quot;font-size: 18px;&quot;&gt;Customer Feedback&lt;/font&gt;" style="text;whiteSpace=wrap;html=1;" parent="1" vertex="1">
          <mxGeometry x="290" y="-1060" width="290" height="40" as="geometry" />
        </mxCell>
        <mxCell id="GxCBvA1wGPQvMKAX8PGW-1" value="&amp;lt;&amp;lt;Interface&amp;gt;&amp;gt;&lt;div&gt;Feedback&lt;/div&gt;" style="shape=umlLifeline;perimeter=lifelinePerimeter;whiteSpace=wrap;html=1;container=0;dropTarget=0;collapsible=0;recursiveResize=0;outlineConnect=0;portConstraint=eastwest;newEdgeStyle={&quot;edgeStyle&quot;:&quot;elbowEdgeStyle&quot;,&quot;elbow&quot;:&quot;vertical&quot;,&quot;curved&quot;:0,&quot;rounded&quot;:0};" parent="1" vertex="1">
          <mxGeometry x="180" y="-970" width="100" height="580" as="geometry" />
        </mxCell>
        <mxCell id="GxCBvA1wGPQvMKAX8PGW-2" value="" style="html=1;points=[];perimeter=orthogonalPerimeter;outlineConnect=0;targetShapes=umlLifeline;portConstraint=eastwest;newEdgeStyle={&quot;edgeStyle&quot;:&quot;elbowEdgeStyle&quot;,&quot;elbow&quot;:&quot;vertical&quot;,&quot;curved&quot;:0,&quot;rounded&quot;:0};" parent="GxCBvA1wGPQvMKAX8PGW-1" vertex="1">
          <mxGeometry x="45" y="70" width="10" height="160" as="geometry" />
        </mxCell>
        <mxCell id="GxCBvA1wGPQvMKAX8PGW-3" value="&amp;lt;&amp;lt;Controller&amp;gt;&amp;gt;&lt;div&gt;Feedback&lt;/div&gt;" style="shape=umlLifeline;perimeter=lifelinePerimeter;whiteSpace=wrap;html=1;container=0;dropTarget=0;collapsible=0;recursiveResize=0;outlineConnect=0;portConstraint=eastwest;newEdgeStyle={&quot;edgeStyle&quot;:&quot;elbowEdgeStyle&quot;,&quot;elbow&quot;:&quot;vertical&quot;,&quot;curved&quot;:0,&quot;rounded&quot;:0};" parent="1" vertex="1">
          <mxGeometry x="390" y="-960" width="100" height="570" as="geometry" />
        </mxCell>
        <mxCell id="GxCBvA1wGPQvMKAX8PGW-4" value="&lt;span style=&quot;color: rgba(0, 0, 0, 0); font-family: monospace; font-size: 0px; text-align: start;&quot;&gt;%3CmxGraphModel%3E%3Croot%3E%3CmxCell%20id%3D%220%22%2F%3E%3CmxCell%20id%3D%221%22%20parent%3D%220%22%2F%3E%3CmxCell%20id%3D%222%22%20value%3D%22Login%22%20style%3D%22html%3D1%3BverticalAlign%3Dbottom%3BendArrow%3Dblock%3BedgeStyle%3DelbowEdgeStyle%3Belbow%3Dvertical%3Bcurved%3D0%3Brounded%3D0%3B%22%20edge%3D%221%22%20parent%3D%221%22%3E%3CmxGeometry%20x%3D%22-0.1053%22%20relative%3D%221%22%20as%3D%22geometry%22%3E%3CmxPoint%20x%3D%22205%22%20y%3D%22160%22%20as%3D%22sourcePoint%22%2F%3E%3CArray%20as%3D%22points%22%3E%3CmxPoint%20x%3D%22300%22%20y%3D%22160%22%2F%3E%3C%2FArray%3E%3CmxPoint%20x%3D%22395%22%20y%3D%22160%22%20as%3D%22targetPoint%22%2F%3E%3CmxPoint%20as%3D%22offset%22%2F%3E%3C%2FmxGeometry%3E%3C%2FmxCell%3E%3C%2Froot%3E%3C%2FmxGraphModel%3E&lt;/span&gt;" style="html=1;points=[];perimeter=orthogonalPerimeter;outlineConnect=0;targetShapes=umlLifeline;portConstraint=eastwest;newEdgeStyle={&quot;edgeStyle&quot;:&quot;elbowEdgeStyle&quot;,&quot;elbow&quot;:&quot;vertical&quot;,&quot;curved&quot;:0,&quot;rounded&quot;:0};" parent="GxCBvA1wGPQvMKAX8PGW-3" vertex="1">
          <mxGeometry x="45" y="80" width="10" height="330" as="geometry" />
        </mxCell>
        <mxCell id="GxCBvA1wGPQvMKAX8PGW-5" value="Sends the submitted feedback data" style="html=1;verticalAlign=bottom;endArrow=block;edgeStyle=elbowEdgeStyle;elbow=vertical;curved=0;rounded=0;" parent="1" edge="1">
          <mxGeometry x="-0.0017" relative="1" as="geometry">
            <mxPoint x="235" y="-809.75" as="sourcePoint" />
            <Array as="points" />
            <mxPoint x="435" y="-810" as="targetPoint" />
            <mxPoint as="offset" />
          </mxGeometry>
        </mxCell>
        <mxCell id="GxCBvA1wGPQvMKAX8PGW-6" value="" style="shape=umlLifeline;perimeter=lifelinePerimeter;whiteSpace=wrap;html=1;container=1;dropTarget=0;collapsible=0;recursiveResize=0;outlineConnect=0;portConstraint=eastwest;newEdgeStyle={&quot;curved&quot;:0,&quot;rounded&quot;:0};participant=umlActor;size=40;" parent="1" vertex="1">
          <mxGeometry x="60" y="-970" width="20" height="580" as="geometry" />
        </mxCell>
        <mxCell id="GxCBvA1wGPQvMKAX8PGW-8" value="&amp;lt;&amp;lt;Entity&amp;gt;&amp;gt;&lt;div&gt;Feedback&lt;/div&gt;" style="shape=umlLifeline;perimeter=lifelinePerimeter;whiteSpace=wrap;html=1;container=1;dropTarget=0;collapsible=0;recursiveResize=0;outlineConnect=0;portConstraint=eastwest;newEdgeStyle={&quot;curved&quot;:0,&quot;rounded&quot;:0};" parent="1" vertex="1">
          <mxGeometry x="650" y="-965" width="100" height="580" as="geometry" />
        </mxCell>
        <mxCell id="GxCBvA1wGPQvMKAX8PGW-9" value="" style="html=1;points=[];perimeter=orthogonalPerimeter;outlineConnect=0;targetShapes=umlLifeline;portConstraint=eastwest;newEdgeStyle={&quot;edgeStyle&quot;:&quot;elbowEdgeStyle&quot;,&quot;elbow&quot;:&quot;vertical&quot;,&quot;curved&quot;:0,&quot;rounded&quot;:0};" parent="GxCBvA1wGPQvMKAX8PGW-8" vertex="1">
          <mxGeometry x="45" y="130" width="10" height="370" as="geometry" />
        </mxCell>
        <mxCell id="GxCBvA1wGPQvMKAX8PGW-10" value="Saves the feedback in the feedback database" style="html=1;verticalAlign=bottom;endArrow=block;edgeStyle=elbowEdgeStyle;elbow=vertical;curved=0;rounded=0;" parent="1" target="GxCBvA1wGPQvMKAX8PGW-8" edge="1">
          <mxGeometry x="-0.1076" relative="1" as="geometry">
            <mxPoint x="445" y="-780" as="sourcePoint" />
            <Array as="points">
              <mxPoint x="515" y="-780" />
            </Array>
            <mxPoint x="649.5" y="-780" as="targetPoint" />
            <mxPoint as="offset" />
          </mxGeometry>
        </mxCell>
        <mxCell id="GxCBvA1wGPQvMKAX8PGW-12" value="Enters and submits feedback" style="html=1;verticalAlign=bottom;endArrow=block;edgeStyle=elbowEdgeStyle;elbow=vertical;curved=0;rounded=0;" parent="1" edge="1">
          <mxGeometry x="0.125" relative="1" as="geometry">
            <mxPoint x="80.00000000000011" y="-840" as="sourcePoint" />
            <Array as="points">
              <mxPoint x="70" y="-840" />
            </Array>
            <mxPoint x="220" y="-840" as="targetPoint" />
            <mxPoint as="offset" />
          </mxGeometry>
        </mxCell>
        <mxCell id="GxCBvA1wGPQvMKAX8PGW-13" value="Confirms that feedback has been saved" style="html=1;verticalAlign=bottom;endArrow=open;dashed=1;endSize=8;curved=0;rounded=0;" parent="1" source="GxCBvA1wGPQvMKAX8PGW-8" edge="1">
          <mxGeometry relative="1" as="geometry">
            <mxPoint x="640" y="-725.4" as="sourcePoint" />
            <mxPoint x="450" y="-725.4" as="targetPoint" />
            <mxPoint as="offset" />
          </mxGeometry>
        </mxCell>
        <mxCell id="GxCBvA1wGPQvMKAX8PGW-20" value="" style="endArrow=classic;html=1;rounded=0;" parent="1" edge="1">
          <mxGeometry width="50" height="50" relative="1" as="geometry">
            <mxPoint x="439.9999999999998" y="-680.4999999999998" as="sourcePoint" />
            <mxPoint x="699.55" y="-680.4999999999998" as="targetPoint" />
          </mxGeometry>
        </mxCell>
        <mxCell id="GxCBvA1wGPQvMKAX8PGW-21" value="Aggregates feedback data and generates a report for the owner" style="text;html=1;align=center;verticalAlign=middle;whiteSpace=wrap;rounded=0;" parent="1" vertex="1">
          <mxGeometry x="480" y="-695" width="204.55" height="30" as="geometry" />
        </mxCell>
        <mxCell id="GxCBvA1wGPQvMKAX8PGW-7" value="Customer" style="html=1;verticalAlign=bottom;startArrow=oval;endArrow=block;startSize=8;edgeStyle=elbowEdgeStyle;elbow=vertical;curved=0;rounded=0;" parent="1" source="GxCBvA1wGPQvMKAX8PGW-2" target="GxCBvA1wGPQvMKAX8PGW-6" edge="1">
          <mxGeometry x="0.9965" y="-30" relative="1" as="geometry">
            <mxPoint x="175" y="-900" as="sourcePoint" />
            <Array as="points">
              <mxPoint x="180" y="-890" />
            </Array>
            <mxPoint as="offset" />
          </mxGeometry>
        </mxCell>
        <mxCell id="GxCBvA1wGPQvMKAX8PGW-22" value="Displays the feedback&lt;div&gt;&lt;span style=&quot;background-color: initial;&quot;&gt;prompt to the customer&lt;/span&gt;&lt;br&gt;&lt;/div&gt;" style="text;html=1;align=center;verticalAlign=middle;whiteSpace=wrap;rounded=0;" parent="1" vertex="1">
          <mxGeometry x="70" y="-920" width="150" height="30" as="geometry" />
        </mxCell>
        <mxCell id="GxCBvA1wGPQvMKAX8PGW-29" value="Provides the aggregated report." style="text;whiteSpace=wrap;html=1;" parent="1" vertex="1">
          <mxGeometry x="470" y="-620" width="200" height="40" as="geometry" />
        </mxCell>
        <mxCell id="GxCBvA1wGPQvMKAX8PGW-31" value="" style="endArrow=block;dashed=1;endFill=0;endSize=12;html=1;rounded=0;" parent="1" edge="1">
          <mxGeometry width="160" relative="1" as="geometry">
            <mxPoint x="695" y="-580" as="sourcePoint" />
            <mxPoint x="439.5" y="-580" as="targetPoint" />
          </mxGeometry>
        </mxCell>
        <mxCell id="GxCBvA1wGPQvMKAX8PGW-32" value="Displays the aggregated feedback report for the owner" style="text;whiteSpace=wrap;html=1;" parent="1" vertex="1">
          <mxGeometry x="300" y="-520" width="320" height="40" as="geometry" />
        </mxCell>
        <mxCell id="GxCBvA1wGPQvMKAX8PGW-34" value="" style="endArrow=classic;html=1;rounded=0;" parent="1" edge="1">
          <mxGeometry width="50" height="50" relative="1" as="geometry">
            <mxPoint x="699.5" y="-490" as="sourcePoint" />
            <mxPoint x="229.32352941176464" y="-490" as="targetPoint" />
          </mxGeometry>
        </mxCell>
        <mxCell id="ZVmlitUZEqQQW5LJN9cY-5" value="" style="rounded=0;whiteSpace=wrap;html=1;strokeColor=#FFFFFF;" vertex="1" parent="1">
          <mxGeometry x="170" y="-990" width="120" height="60" as="geometry" />
        </mxCell>
        <mxCell id="ZVmlitUZEqQQW5LJN9cY-6" value="" style="rounded=0;whiteSpace=wrap;html=1;strokeColor=#FFFFFF;" vertex="1" parent="1">
          <mxGeometry x="390" y="-980" width="120" height="60" as="geometry" />
        </mxCell>
        <mxCell id="ZVmlitUZEqQQW5LJN9cY-7" value="" style="rounded=0;whiteSpace=wrap;html=1;strokeColor=#FFFFFF;" vertex="1" parent="1">
          <mxGeometry x="640" y="-980" width="120" height="60" as="geometry" />
        </mxCell>
        <mxCell id="ZVmlitUZEqQQW5LJN9cY-4" value="&amp;lt;&amp;lt;Entity&amp;gt;&amp;gt;&lt;div&gt;Feedback&lt;/div&gt;" style="ellipse;shape=umlEntity;whiteSpace=wrap;html=1;" vertex="1" parent="1">
          <mxGeometry x="660" y="-990" width="80" height="70" as="geometry" />
        </mxCell>
        <mxCell id="ZVmlitUZEqQQW5LJN9cY-3" value="&amp;lt;&amp;lt;Controller&amp;gt;&amp;gt;&lt;div&gt;Feedback&lt;/div&gt;" style="ellipse;shape=umlControl;whiteSpace=wrap;html=1;" vertex="1" parent="1">
          <mxGeometry x="405" y="-1000" width="70" height="80" as="geometry" />
        </mxCell>
        <mxCell id="ZVmlitUZEqQQW5LJN9cY-2" value="&amp;lt;&amp;lt;Interface&amp;gt;&amp;gt;&lt;div&gt;Feedback&lt;/div&gt;" style="shape=umlBoundary;whiteSpace=wrap;html=1;" vertex="1" parent="1">
          <mxGeometry x="180" y="-1000" width="90" height="70" as="geometry" />
        </mxCell>
      </root>
    </mxGraphModel>
  </diagram>
  <diagram id="tjsdyyjoq6B4P0Ui09v7" name="Page-8">
    <mxGraphModel dx="1750" dy="1035" grid="1" gridSize="10" guides="1" tooltips="1" connect="1" arrows="1" fold="1" page="1" pageScale="1" pageWidth="850" pageHeight="1100" math="0" shadow="0">
      <root>
        <mxCell id="0" />
        <mxCell id="1" parent="0" />
        <mxCell id="Gt9TLsFubI9ewHB2jXUj-1" value="&lt;font style=&quot;font-size: 24px;&quot;&gt;Inventory Management&lt;/font&gt;" style="text;whiteSpace=wrap;html=1;" parent="1" vertex="1">
          <mxGeometry x="270" y="50" width="350" height="40" as="geometry" />
        </mxCell>
        <mxCell id="ivGMqn8szfLSVr4ERQL8-1" value="&amp;lt;&amp;lt;Interface&amp;gt;&amp;gt;&lt;div&gt;Inventory Management&lt;/div&gt;" style="shape=umlLifeline;perimeter=lifelinePerimeter;whiteSpace=wrap;html=1;container=0;dropTarget=0;collapsible=0;recursiveResize=0;outlineConnect=0;portConstraint=eastwest;newEdgeStyle={&quot;edgeStyle&quot;:&quot;elbowEdgeStyle&quot;,&quot;elbow&quot;:&quot;vertical&quot;,&quot;curved&quot;:0,&quot;rounded&quot;:0};" parent="1" vertex="1">
          <mxGeometry x="225" y="170" width="100" height="580" as="geometry" />
        </mxCell>
        <mxCell id="ivGMqn8szfLSVr4ERQL8-3" value="&amp;lt;&amp;lt;Controller&amp;gt;&amp;gt;&lt;div&gt;Inventory Management&lt;/div&gt;" style="shape=umlLifeline;perimeter=lifelinePerimeter;whiteSpace=wrap;html=1;container=0;dropTarget=0;collapsible=0;recursiveResize=0;outlineConnect=0;portConstraint=eastwest;newEdgeStyle={&quot;edgeStyle&quot;:&quot;elbowEdgeStyle&quot;,&quot;elbow&quot;:&quot;vertical&quot;,&quot;curved&quot;:0,&quot;rounded&quot;:0};" parent="1" vertex="1">
          <mxGeometry x="435" y="170" width="100" height="570" as="geometry" />
        </mxCell>
        <mxCell id="ivGMqn8szfLSVr4ERQL8-4" value="&lt;span style=&quot;color: rgba(0, 0, 0, 0); font-family: monospace; font-size: 0px; text-align: start;&quot;&gt;%3CmxGraphModel%3E%3Croot%3E%3CmxCell%20id%3D%220%22%2F%3E%3CmxCell%20id%3D%221%22%20parent%3D%220%22%2F%3E%3CmxCell%20id%3D%222%22%20value%3D%22Login%22%20style%3D%22html%3D1%3BverticalAlign%3Dbottom%3BendArrow%3Dblock%3BedgeStyle%3DelbowEdgeStyle%3Belbow%3Dvertical%3Bcurved%3D0%3Brounded%3D0%3B%22%20edge%3D%221%22%20parent%3D%221%22%3E%3CmxGeometry%20x%3D%22-0.1053%22%20relative%3D%221%22%20as%3D%22geometry%22%3E%3CmxPoint%20x%3D%22205%22%20y%3D%22160%22%20as%3D%22sourcePoint%22%2F%3E%3CArray%20as%3D%22points%22%3E%3CmxPoint%20x%3D%22300%22%20y%3D%22160%22%2F%3E%3C%2FArray%3E%3CmxPoint%20x%3D%22395%22%20y%3D%22160%22%20as%3D%22targetPoint%22%2F%3E%3CmxPoint%20as%3D%22offset%22%2F%3E%3C%2FmxGeometry%3E%3C%2FmxCell%3E%3C%2Froot%3E%3C%2FmxGraphModel%3E&lt;/span&gt;" style="html=1;points=[];perimeter=orthogonalPerimeter;outlineConnect=0;targetShapes=umlLifeline;portConstraint=eastwest;newEdgeStyle={&quot;edgeStyle&quot;:&quot;elbowEdgeStyle&quot;,&quot;elbow&quot;:&quot;vertical&quot;,&quot;curved&quot;:0,&quot;rounded&quot;:0};" parent="ivGMqn8szfLSVr4ERQL8-3" vertex="1">
          <mxGeometry x="45" y="80" width="10" height="370" as="geometry" />
        </mxCell>
        <mxCell id="ivGMqn8szfLSVr4ERQL8-5" value="Service completed" style="html=1;verticalAlign=bottom;endArrow=block;edgeStyle=elbowEdgeStyle;elbow=vertical;curved=0;rounded=0;" parent="1" edge="1">
          <mxGeometry relative="1" as="geometry">
            <mxPoint x="120.00142857142856" y="280.0042857142858" as="sourcePoint" />
            <Array as="points" />
            <mxPoint x="485.93" y="280.29" as="targetPoint" />
            <mxPoint as="offset" />
          </mxGeometry>
        </mxCell>
        <mxCell id="ivGMqn8szfLSVr4ERQL8-6" value="" style="shape=umlLifeline;perimeter=lifelinePerimeter;whiteSpace=wrap;html=1;container=1;dropTarget=0;collapsible=0;recursiveResize=0;outlineConnect=0;portConstraint=eastwest;newEdgeStyle={&quot;curved&quot;:0,&quot;rounded&quot;:0};participant=umlActor;size=40;" parent="1" vertex="1">
          <mxGeometry x="105" y="140" width="35" height="610" as="geometry" />
        </mxCell>
        <mxCell id="ivGMqn8szfLSVr4ERQL8-8" value="&amp;lt;&amp;lt;Entity&amp;gt;&amp;gt;&lt;div&gt;Inventory management&lt;/div&gt;" style="shape=umlLifeline;perimeter=lifelinePerimeter;whiteSpace=wrap;html=1;container=1;dropTarget=0;collapsible=0;recursiveResize=0;outlineConnect=0;portConstraint=eastwest;newEdgeStyle={&quot;curved&quot;:0,&quot;rounded&quot;:0};" parent="1" vertex="1">
          <mxGeometry x="645" y="180" width="100" height="580" as="geometry" />
        </mxCell>
        <mxCell id="ivGMqn8szfLSVr4ERQL8-9" value="" style="html=1;points=[];perimeter=orthogonalPerimeter;outlineConnect=0;targetShapes=umlLifeline;portConstraint=eastwest;newEdgeStyle={&quot;edgeStyle&quot;:&quot;elbowEdgeStyle&quot;,&quot;elbow&quot;:&quot;vertical&quot;,&quot;curved&quot;:0,&quot;rounded&quot;:0};" parent="ivGMqn8szfLSVr4ERQL8-8" vertex="1">
          <mxGeometry x="45" y="130" width="10" height="320" as="geometry" />
        </mxCell>
        <mxCell id="ivGMqn8szfLSVr4ERQL8-10" value="Update inventory after service" style="html=1;verticalAlign=bottom;endArrow=block;edgeStyle=elbowEdgeStyle;elbow=horizontal;curved=0;rounded=0;" parent="1" source="ivGMqn8szfLSVr4ERQL8-4" target="ivGMqn8szfLSVr4ERQL8-8" edge="1">
          <mxGeometry x="-0.1058" relative="1" as="geometry">
            <mxPoint x="465" y="310" as="sourcePoint" />
            <Array as="points">
              <mxPoint x="560" y="310" />
            </Array>
            <mxPoint x="655" y="310" as="targetPoint" />
            <mxPoint as="offset" />
          </mxGeometry>
        </mxCell>
        <mxCell id="ivGMqn8szfLSVr4ERQL8-13" value="Update inventory after service" style="html=1;verticalAlign=bottom;endArrow=open;dashed=1;endSize=8;curved=0;rounded=0;" parent="1" edge="1">
          <mxGeometry x="0.0075" relative="1" as="geometry">
            <mxPoint x="685" y="340" as="sourcePoint" />
            <mxPoint x="495" y="340" as="targetPoint" />
            <mxPoint as="offset" />
          </mxGeometry>
        </mxCell>
        <mxCell id="ivGMqn8szfLSVr4ERQL8-14" value="IF" style="shape=umlFrame;whiteSpace=wrap;html=1;pointerEvents=0;" parent="1" vertex="1">
          <mxGeometry x="60" y="530" width="460" height="130" as="geometry" />
        </mxCell>
        <mxCell id="ivGMqn8szfLSVr4ERQL8-18" value="" style="endArrow=classic;html=1;rounded=0;" parent="1" target="ivGMqn8szfLSVr4ERQL8-9" edge="1">
          <mxGeometry width="50" height="50" relative="1" as="geometry">
            <mxPoint x="484.4999999999998" y="420.0000000000002" as="sourcePoint" />
            <mxPoint x="274.54761904761904" y="420.0000000000002" as="targetPoint" />
          </mxGeometry>
        </mxCell>
        <mxCell id="ivGMqn8szfLSVr4ERQL8-19" value="Checks if inventory is low" style="text;html=1;align=center;verticalAlign=middle;whiteSpace=wrap;rounded=0;" parent="1" vertex="1">
          <mxGeometry x="500" y="390" width="160" height="30" as="geometry" />
        </mxCell>
        <mxCell id="ivGMqn8szfLSVr4ERQL8-26" value="" style="html=1;verticalAlign=bottom;endArrow=open;dashed=1;endSize=8;curved=0;rounded=0;" parent="1" source="ivGMqn8szfLSVr4ERQL8-9" target="ivGMqn8szfLSVr4ERQL8-4" edge="1">
          <mxGeometry x="0.0075" relative="1" as="geometry">
            <mxPoint x="695" y="350" as="sourcePoint" />
            <mxPoint x="505" y="350" as="targetPoint" />
            <mxPoint as="offset" />
          </mxGeometry>
        </mxCell>
        <mxCell id="ivGMqn8szfLSVr4ERQL8-28" value="&lt;span style=&quot;color: rgb(0, 0, 0); font-family: Helvetica; font-size: 12px; font-style: normal; font-variant-ligatures: normal; font-variant-caps: normal; font-weight: 400; letter-spacing: normal; orphans: 2; text-align: left; text-indent: 0px; text-transform: none; widows: 2; word-spacing: 0px; -webkit-text-stroke-width: 0px; white-space: normal; background-color: rgb(251, 251, 251); text-decoration-thickness: initial; text-decoration-style: initial; text-decoration-color: initial; display: inline !important; float: none;&quot;&gt;Returns inventory status&lt;/span&gt;" style="text;whiteSpace=wrap;html=1;" parent="1" vertex="1">
          <mxGeometry x="520" y="440" width="160" height="40" as="geometry" />
        </mxCell>
        <mxCell id="ivGMqn8szfLSVr4ERQL8-30" value="inventory is low" style="text;whiteSpace=wrap;html=1;" parent="1" vertex="1">
          <mxGeometry x="125" y="530" width="120" height="40" as="geometry" />
        </mxCell>
        <mxCell id="ivGMqn8szfLSVr4ERQL8-31" value="Notify owner to reorder" style="text;whiteSpace=wrap;html=1;" parent="1" vertex="1">
          <mxGeometry x="224.57" y="550" width="160" height="40" as="geometry" />
        </mxCell>
        <mxCell id="ivGMqn8szfLSVr4ERQL8-32" value="" style="endArrow=classic;html=1;rounded=0;" parent="1" edge="1">
          <mxGeometry width="50" height="50" relative="1" as="geometry">
            <mxPoint x="490" y="580" as="sourcePoint" />
            <mxPoint x="119.57142857142856" y="580" as="targetPoint" />
          </mxGeometry>
        </mxCell>
        <mxCell id="ivGMqn8szfLSVr4ERQL8-33" value="Owner" style="text;html=1;align=center;verticalAlign=middle;whiteSpace=wrap;rounded=0;" parent="1" vertex="1">
          <mxGeometry x="92.5" y="175" width="60" height="30" as="geometry" />
        </mxCell>
        <mxCell id="ivGMqn8szfLSVr4ERQL8-35" value="Updates real-time inventory levels." style="text;whiteSpace=wrap;html=1;" parent="1" vertex="1">
          <mxGeometry x="290" y="590" width="220" height="40" as="geometry" />
        </mxCell>
        <mxCell id="ivGMqn8szfLSVr4ERQL8-36" value="" style="endArrow=classic;html=1;rounded=0;entryX=0.466;entryY=0.977;entryDx=0;entryDy=0;entryPerimeter=0;" parent="1" edge="1">
          <mxGeometry width="50" height="50" relative="1" as="geometry">
            <mxPoint x="480.14" y="620.0000000000001" as="sourcePoint" />
            <mxPoint x="270" y="620.0000000000001" as="targetPoint" />
          </mxGeometry>
        </mxCell>
        <mxCell id="SgQIOBmJb-6mmXmeJTMb-4" value="" style="rounded=0;whiteSpace=wrap;html=1;strokeColor=#FFFFFF;" vertex="1" parent="1">
          <mxGeometry x="215" y="150" width="120" height="60" as="geometry" />
        </mxCell>
        <mxCell id="SgQIOBmJb-6mmXmeJTMb-5" value="" style="rounded=0;whiteSpace=wrap;html=1;strokeColor=#FFFFFF;" vertex="1" parent="1">
          <mxGeometry x="425" y="150" width="120" height="60" as="geometry" />
        </mxCell>
        <mxCell id="SgQIOBmJb-6mmXmeJTMb-6" value="" style="rounded=0;whiteSpace=wrap;html=1;strokeColor=#FFFFFF;" vertex="1" parent="1">
          <mxGeometry x="635" y="160" width="120" height="60" as="geometry" />
        </mxCell>
        <mxCell id="SgQIOBmJb-6mmXmeJTMb-3" value="&amp;lt;&amp;lt;Entity&amp;gt;&amp;gt;&lt;div&gt;Inventory management&lt;/div&gt;" style="ellipse;shape=umlEntity;whiteSpace=wrap;html=1;" vertex="1" parent="1">
          <mxGeometry x="645" y="125" width="100" height="90" as="geometry" />
        </mxCell>
        <mxCell id="SgQIOBmJb-6mmXmeJTMb-2" value="&amp;lt;&amp;lt;Controller&amp;gt;&amp;gt;&lt;div&gt;Inventory Management&lt;/div&gt;" style="ellipse;shape=umlControl;whiteSpace=wrap;html=1;" vertex="1" parent="1">
          <mxGeometry x="435" y="125" width="100" height="90" as="geometry" />
        </mxCell>
        <mxCell id="SgQIOBmJb-6mmXmeJTMb-1" value="&amp;lt;&amp;lt;Interface&amp;gt;&amp;gt;&lt;div&gt;Inventory Management&lt;/div&gt;" style="shape=umlBoundary;whiteSpace=wrap;html=1;" vertex="1" parent="1">
          <mxGeometry x="215" y="130" width="100" height="80" as="geometry" />
        </mxCell>
      </root>
    </mxGraphModel>
  </diagram>
  <diagram id="GuzR_t03wouv0N0kzJ3j" name="Page-9">
    <mxGraphModel dx="2008" dy="1362" grid="1" gridSize="10" guides="1" tooltips="1" connect="1" arrows="1" fold="1" page="1" pageScale="1" pageWidth="850" pageHeight="1100" math="0" shadow="0">
      <root>
        <mxCell id="0" />
        <mxCell id="1" parent="0" />
        <mxCell id="rws09I0ItbblFpe7jHW3-1" value="&lt;font style=&quot;font-size: 36px;&quot;&gt;Manage Account&lt;/font&gt;" style="text;whiteSpace=wrap;html=1;" parent="1" vertex="1">
          <mxGeometry x="40" y="150" width="300" height="40" as="geometry" />
        </mxCell>
        <mxCell id="Ovzq4kMX_2dMPbxkBDg--1" value="&amp;lt;&amp;lt;Interface&amp;gt;&amp;gt;&lt;div&gt;inspect tyre&lt;/div&gt;" style="shape=umlLifeline;perimeter=lifelinePerimeter;whiteSpace=wrap;html=1;container=0;dropTarget=0;collapsible=0;recursiveResize=0;outlineConnect=0;portConstraint=eastwest;newEdgeStyle={&quot;edgeStyle&quot;:&quot;elbowEdgeStyle&quot;,&quot;elbow&quot;:&quot;vertical&quot;,&quot;curved&quot;:0,&quot;rounded&quot;:0};" parent="1" vertex="1">
          <mxGeometry x="110" y="280" width="100" height="880" as="geometry" />
        </mxCell>
        <mxCell id="Ovzq4kMX_2dMPbxkBDg--2" value="" style="html=1;points=[];perimeter=orthogonalPerimeter;outlineConnect=0;targetShapes=umlLifeline;portConstraint=eastwest;newEdgeStyle={&quot;edgeStyle&quot;:&quot;elbowEdgeStyle&quot;,&quot;elbow&quot;:&quot;vertical&quot;,&quot;curved&quot;:0,&quot;rounded&quot;:0};" parent="Ovzq4kMX_2dMPbxkBDg--1" vertex="1">
          <mxGeometry x="45" y="70" width="10" height="140" as="geometry" />
        </mxCell>
        <mxCell id="Ovzq4kMX_2dMPbxkBDg--3" value="&amp;lt;&amp;lt;Controller&amp;gt;&amp;gt;&lt;div&gt;inspect tyre&lt;/div&gt;" style="shape=umlLifeline;perimeter=lifelinePerimeter;whiteSpace=wrap;html=1;container=0;dropTarget=0;collapsible=0;recursiveResize=0;outlineConnect=0;portConstraint=eastwest;newEdgeStyle={&quot;edgeStyle&quot;:&quot;elbowEdgeStyle&quot;,&quot;elbow&quot;:&quot;vertical&quot;,&quot;curved&quot;:0,&quot;rounded&quot;:0};" parent="1" vertex="1">
          <mxGeometry x="315" y="275" width="100" height="875" as="geometry" />
        </mxCell>
        <mxCell id="Ovzq4kMX_2dMPbxkBDg--4" value="&lt;span style=&quot;color: rgba(0, 0, 0, 0); font-family: monospace; font-size: 0px; text-align: start;&quot;&gt;%3CmxGraphModel%3E%3Croot%3E%3CmxCell%20id%3D%220%22%2F%3E%3CmxCell%20id%3D%221%22%20parent%3D%220%22%2F%3E%3CmxCell%20id%3D%222%22%20value%3D%22Login%22%20style%3D%22html%3D1%3BverticalAlign%3Dbottom%3BendArrow%3Dblock%3BedgeStyle%3DelbowEdgeStyle%3Belbow%3Dvertical%3Bcurved%3D0%3Brounded%3D0%3B%22%20edge%3D%221%22%20parent%3D%221%22%3E%3CmxGeometry%20x%3D%22-0.1053%22%20relative%3D%221%22%20as%3D%22geometry%22%3E%3CmxPoint%20x%3D%22205%22%20y%3D%22160%22%20as%3D%22sourcePoint%22%2F%3E%3CArray%20as%3D%22points%22%3E%3CmxPoint%20x%3D%22300%22%20y%3D%22160%22%2F%3E%3C%2FArray%3E%3CmxPoint%20x%3D%22395%22%20y%3D%22160%22%20as%3D%22targetPoint%22%2F%3E%3CmxPoint%20as%3D%22offset%22%2F%3E%3C%2FmxGeometry%3E%3C%2FmxCell%3E%3C%2Froot%3E%3C%2FmxGraphModel%3E&lt;/span&gt;" style="html=1;points=[];perimeter=orthogonalPerimeter;outlineConnect=0;targetShapes=umlLifeline;portConstraint=eastwest;newEdgeStyle={&quot;edgeStyle&quot;:&quot;elbowEdgeStyle&quot;,&quot;elbow&quot;:&quot;vertical&quot;,&quot;curved&quot;:0,&quot;rounded&quot;:0};" parent="Ovzq4kMX_2dMPbxkBDg--3" vertex="1">
          <mxGeometry x="45" y="80" width="10" height="120" as="geometry" />
        </mxCell>
        <mxCell id="Ovzq4kMX_2dMPbxkBDg--5" value="" style="shape=umlLifeline;perimeter=lifelinePerimeter;whiteSpace=wrap;html=1;container=1;dropTarget=0;collapsible=0;recursiveResize=0;outlineConnect=0;portConstraint=eastwest;newEdgeStyle={&quot;curved&quot;:0,&quot;rounded&quot;:0};participant=umlActor;" parent="1" vertex="1">
          <mxGeometry x="-90" y="270" width="20" height="910" as="geometry" />
        </mxCell>
        <mxCell id="Ovzq4kMX_2dMPbxkBDg--7" value="&amp;lt;&amp;lt;Entity&amp;gt;&amp;gt;&lt;div&gt;inspect tyre&lt;/div&gt;" style="shape=umlLifeline;perimeter=lifelinePerimeter;whiteSpace=wrap;html=1;container=1;dropTarget=0;collapsible=0;recursiveResize=0;outlineConnect=0;portConstraint=eastwest;newEdgeStyle={&quot;curved&quot;:0,&quot;rounded&quot;:0};" parent="1" vertex="1">
          <mxGeometry x="540" y="275" width="100" height="865" as="geometry" />
        </mxCell>
        <mxCell id="Ovzq4kMX_2dMPbxkBDg--9" style="edgeStyle=elbowEdgeStyle;rounded=0;orthogonalLoop=1;jettySize=auto;html=1;elbow=vertical;curved=0;" parent="Ovzq4kMX_2dMPbxkBDg--7" target="Ovzq4kMX_2dMPbxkBDg--7" edge="1">
          <mxGeometry relative="1" as="geometry">
            <mxPoint x="120" y="180" as="targetPoint" />
            <Array as="points">
              <mxPoint x="70" y="130" />
            </Array>
            <mxPoint x="49.38888888888869" y="155" as="sourcePoint" />
          </mxGeometry>
        </mxCell>
        <mxCell id="Ovzq4kMX_2dMPbxkBDg--10" value="Navigates to the registration page" style="html=1;verticalAlign=bottom;endArrow=block;edgeStyle=elbowEdgeStyle;elbow=vertical;curved=0;rounded=0;" parent="1" source="Ovzq4kMX_2dMPbxkBDg--5" target="Ovzq4kMX_2dMPbxkBDg--4" edge="1">
          <mxGeometry x="-0.1035" relative="1" as="geometry">
            <mxPoint x="180.0000000000001" y="405" as="sourcePoint" />
            <Array as="points">
              <mxPoint x="270" y="405" />
            </Array>
            <mxPoint x="360" y="405" as="targetPoint" />
            <mxPoint as="offset" />
          </mxGeometry>
        </mxCell>
        <mxCell id="Ovzq4kMX_2dMPbxkBDg--13" value="Worker" style="text;html=1;align=center;verticalAlign=middle;whiteSpace=wrap;rounded=0;" parent="1" vertex="1">
          <mxGeometry x="-110" y="300" width="60" height="30" as="geometry" />
        </mxCell>
        <mxCell id="Ovzq4kMX_2dMPbxkBDg--15" value="IF" style="shape=umlFrame;whiteSpace=wrap;html=1;pointerEvents=0;" parent="1" vertex="1">
          <mxGeometry x="-160" y="510" width="770" height="190" as="geometry" />
        </mxCell>
        <mxCell id="Ovzq4kMX_2dMPbxkBDg--19" value="Accesses the website" style="html=1;verticalAlign=bottom;startArrow=oval;endArrow=block;startSize=8;edgeStyle=elbowEdgeStyle;elbow=horizontal;curved=0;rounded=0;" parent="1" edge="1">
          <mxGeometry x="-0.0466" y="5" relative="1" as="geometry">
            <mxPoint x="-71" y="365" as="sourcePoint" />
            <Array as="points">
              <mxPoint x="120" y="365" />
            </Array>
            <mxPoint as="offset" />
            <mxPoint x="165" y="365" as="targetPoint" />
          </mxGeometry>
        </mxCell>
        <mxCell id="Ovzq4kMX_2dMPbxkBDg--20" value="" style="endArrow=open;endFill=1;endSize=12;html=1;rounded=0;" parent="1" edge="1">
          <mxGeometry width="160" relative="1" as="geometry">
            <mxPoint x="360.00142857142845" y="630.0000000000002" as="sourcePoint" />
            <mxPoint x="585.93" y="630" as="targetPoint" />
          </mxGeometry>
        </mxCell>
        <mxCell id="Ovzq4kMX_2dMPbxkBDg--21" value="Stores customer information in the database" style="text;html=1;align=center;verticalAlign=middle;whiteSpace=wrap;rounded=0;" parent="1" vertex="1">
          <mxGeometry x="360" y="600" width="240" height="30" as="geometry" />
        </mxCell>
        <mxCell id="Ovzq4kMX_2dMPbxkBDg--23" value="invalid" style="text;html=1;align=center;verticalAlign=middle;whiteSpace=wrap;rounded=0;" parent="1" vertex="1">
          <mxGeometry x="-90" y="510" width="190" height="30" as="geometry" />
        </mxCell>
        <mxCell id="Ovzq4kMX_2dMPbxkBDg--26" value="Notifies the Owner that a new account is available for review." style="text;whiteSpace=wrap;html=1;" parent="1" vertex="1">
          <mxGeometry x="180" y="750" width="170" height="40" as="geometry" />
        </mxCell>
        <mxCell id="Ovzq4kMX_2dMPbxkBDg--27" value="" style="endArrow=classic;html=1;rounded=0;" parent="1" edge="1">
          <mxGeometry width="50" height="50" relative="1" as="geometry">
            <mxPoint x="359.9999999999998" y="770" as="sourcePoint" />
            <mxPoint x="154.46153846153834" y="770" as="targetPoint" />
          </mxGeometry>
        </mxCell>
        <mxCell id="Ovzq4kMX_2dMPbxkBDg--28" value="IF" style="shape=umlFrame;whiteSpace=wrap;html=1;pointerEvents=0;" parent="1" vertex="1">
          <mxGeometry x="-180" y="970" width="790" height="200" as="geometry" />
        </mxCell>
        <mxCell id="Ovzq4kMX_2dMPbxkBDg--35" value="Submits registration form with account information." style="html=1;verticalAlign=bottom;endArrow=block;edgeStyle=elbowEdgeStyle;elbow=vertical;curved=0;rounded=0;" parent="1" edge="1">
          <mxGeometry x="-0.1035" relative="1" as="geometry">
            <mxPoint x="-81" y="440" as="sourcePoint" />
            <Array as="points">
              <mxPoint x="270" y="440" />
            </Array>
            <mxPoint x="360" y="440" as="targetPoint" />
            <mxPoint as="offset" />
          </mxGeometry>
        </mxCell>
        <mxCell id="Ovzq4kMX_2dMPbxkBDg--36" value="" style="endArrow=classic;html=1;rounded=0;" parent="1" target="Ovzq4kMX_2dMPbxkBDg--3" edge="1">
          <mxGeometry width="50" height="50" relative="1" as="geometry">
            <mxPoint x="170" y="480" as="sourcePoint" />
            <mxPoint x="220" y="430" as="targetPoint" />
          </mxGeometry>
        </mxCell>
        <mxCell id="Ovzq4kMX_2dMPbxkBDg--37" value="&#xa;Validates entered data&#xa;&#xa;" style="text;html=1;align=center;verticalAlign=middle;whiteSpace=wrap;rounded=0;" parent="1" vertex="1">
          <mxGeometry x="174.55" y="460" width="175" height="30" as="geometry" />
        </mxCell>
        <mxCell id="Ovzq4kMX_2dMPbxkBDg--39" value="" style="endArrow=classic;html=1;rounded=0;" parent="1" edge="1">
          <mxGeometry width="50" height="50" relative="1" as="geometry">
            <mxPoint x="364.81999999999977" y="540" as="sourcePoint" />
            <mxPoint x="159.28153846153833" y="540" as="targetPoint" />
          </mxGeometry>
        </mxCell>
        <mxCell id="Ovzq4kMX_2dMPbxkBDg--40" value="Displays error messages for correction" style="text;whiteSpace=wrap;html=1;" parent="1" vertex="1">
          <mxGeometry x="160" y="540" width="240" height="40" as="geometry" />
        </mxCell>
        <mxCell id="Ovzq4kMX_2dMPbxkBDg--42" value="" style="endArrow=none;html=1;rounded=0;exitX=-0.002;exitY=0.327;exitDx=0;exitDy=0;exitPerimeter=0;" parent="1" source="Ovzq4kMX_2dMPbxkBDg--15" target="Ovzq4kMX_2dMPbxkBDg--7" edge="1">
          <mxGeometry width="50" height="50" relative="1" as="geometry">
            <mxPoint x="-10" y="630" as="sourcePoint" />
            <mxPoint x="40" y="580" as="targetPoint" />
          </mxGeometry>
        </mxCell>
        <mxCell id="Ovzq4kMX_2dMPbxkBDg--43" value="valid" style="text;whiteSpace=wrap;html=1;" parent="1" vertex="1">
          <mxGeometry x="-15" y="570" width="60" height="40" as="geometry" />
        </mxCell>
        <mxCell id="Ovzq4kMX_2dMPbxkBDg--46" value="" style="shape=umlLifeline;perimeter=lifelinePerimeter;whiteSpace=wrap;html=1;container=1;dropTarget=0;collapsible=0;recursiveResize=0;outlineConnect=0;portConstraint=eastwest;newEdgeStyle={&quot;curved&quot;:0,&quot;rounded&quot;:0};participant=umlActor;" parent="1" vertex="1">
          <mxGeometry x="-250" y="270" width="30" height="910" as="geometry" />
        </mxCell>
        <mxCell id="Ovzq4kMX_2dMPbxkBDg--47" value="Owner" style="text;html=1;align=center;verticalAlign=middle;whiteSpace=wrap;rounded=0;" parent="1" vertex="1">
          <mxGeometry x="-265" y="310" width="60" height="30" as="geometry" />
        </mxCell>
        <mxCell id="Ovzq4kMX_2dMPbxkBDg--48" value="Checks account details" style="text;whiteSpace=wrap;html=1;" parent="1" vertex="1">
          <mxGeometry x="-90" y="810" width="160" height="40" as="geometry" />
        </mxCell>
        <mxCell id="Ovzq4kMX_2dMPbxkBDg--49" value="" style="endArrow=classic;html=1;rounded=0;" parent="1" source="Ovzq4kMX_2dMPbxkBDg--46" target="Ovzq4kMX_2dMPbxkBDg--1" edge="1">
          <mxGeometry width="50" height="50" relative="1" as="geometry">
            <mxPoint x="-210" y="810" as="sourcePoint" />
            <mxPoint x="-160" y="760" as="targetPoint" />
            <Array as="points">
              <mxPoint x="-10" y="830" />
            </Array>
          </mxGeometry>
        </mxCell>
        <mxCell id="Ovzq4kMX_2dMPbxkBDg--50" value="Retrieves account data for review." style="text;whiteSpace=wrap;html=1;" parent="1" vertex="1">
          <mxGeometry x="375" y="810" width="210" height="40" as="geometry" />
        </mxCell>
        <mxCell id="Ovzq4kMX_2dMPbxkBDg--51" value="" style="endArrow=classic;html=1;rounded=0;" parent="1" target="Ovzq4kMX_2dMPbxkBDg--7" edge="1">
          <mxGeometry width="50" height="50" relative="1" as="geometry">
            <mxPoint x="360" y="850" as="sourcePoint" />
            <mxPoint x="756" y="850" as="targetPoint" />
            <Array as="points">
              <mxPoint x="586" y="850" />
            </Array>
          </mxGeometry>
        </mxCell>
        <mxCell id="Ovzq4kMX_2dMPbxkBDg--56" value="Returns account details to the Controller." style="html=1;verticalAlign=bottom;endArrow=open;dashed=1;endSize=8;curved=0;rounded=0;" parent="1" target="Ovzq4kMX_2dMPbxkBDg--3" edge="1">
          <mxGeometry relative="1" as="geometry">
            <mxPoint x="590" y="880" as="sourcePoint" />
            <mxPoint x="510" y="880" as="targetPoint" />
          </mxGeometry>
        </mxCell>
        <mxCell id="Ovzq4kMX_2dMPbxkBDg--57" value="Displays account details&amp;nbsp;&lt;div&gt;for the Owner to review&lt;/div&gt;" style="text;whiteSpace=wrap;html=1;" parent="1" vertex="1">
          <mxGeometry x="200" y="910" width="290" height="40" as="geometry" />
        </mxCell>
        <mxCell id="Ovzq4kMX_2dMPbxkBDg--58" value="" style="endArrow=classic;html=1;rounded=0;" parent="1" edge="1">
          <mxGeometry width="50" height="50" relative="1" as="geometry">
            <mxPoint x="365.5399999999998" y="930" as="sourcePoint" />
            <mxPoint x="160.00153846153833" y="930" as="targetPoint" />
          </mxGeometry>
        </mxCell>
        <mxCell id="Ovzq4kMX_2dMPbxkBDg--60" value="correct" style="text;whiteSpace=wrap;html=1;" parent="1" vertex="1">
          <mxGeometry x="-80" y="970" width="70" height="40" as="geometry" />
        </mxCell>
        <mxCell id="Ovzq4kMX_2dMPbxkBDg--61" value="" style="line;strokeWidth=1;fillColor=none;align=left;verticalAlign=middle;spacingTop=-1;spacingLeft=3;spacingRight=3;rotatable=0;labelPosition=right;points=[];portConstraint=eastwest;strokeColor=inherit;" parent="1" vertex="1">
          <mxGeometry x="-180" y="1066" width="790" height="8" as="geometry" />
        </mxCell>
        <mxCell id="Ovzq4kMX_2dMPbxkBDg--62" value="&lt;strong&gt;incorrect&lt;/strong&gt;:&lt;ul&gt;&lt;li&gt;&lt;/li&gt;&lt;/ul&gt;" style="text;whiteSpace=wrap;html=1;" parent="1" vertex="1">
          <mxGeometry x="-80" y="1070" width="90" height="80" as="geometry" />
        </mxCell>
        <mxCell id="Ovzq4kMX_2dMPbxkBDg--66" value="" style="endArrow=classic;html=1;rounded=0;" parent="1" edge="1">
          <mxGeometry width="50" height="50" relative="1" as="geometry">
            <mxPoint x="162.23153846153835" y="1020" as="sourcePoint" />
            <mxPoint x="367.76999999999975" y="1020" as="targetPoint" />
          </mxGeometry>
        </mxCell>
        <mxCell id="Ovzq4kMX_2dMPbxkBDg--67" value="Approves the account." style="text;whiteSpace=wrap;html=1;" parent="1" vertex="1">
          <mxGeometry x="205" y="990" width="150" height="40" as="geometry" />
        </mxCell>
        <mxCell id="Ovzq4kMX_2dMPbxkBDg--68" value="Updates account status to &quot;Approved&quot;" style="text;whiteSpace=wrap;html=1;" parent="1" vertex="1">
          <mxGeometry x="375" y="1010" width="240" height="40" as="geometry" />
        </mxCell>
        <mxCell id="Ovzq4kMX_2dMPbxkBDg--69" value="" style="endArrow=classic;html=1;rounded=0;" parent="1" target="Ovzq4kMX_2dMPbxkBDg--7" edge="1">
          <mxGeometry width="50" height="50" relative="1" as="geometry">
            <mxPoint x="370.00153846153836" y="1030" as="sourcePoint" />
            <mxPoint x="575.5399999999997" y="1030" as="targetPoint" />
          </mxGeometry>
        </mxCell>
        <mxCell id="Ovzq4kMX_2dMPbxkBDg--70" value="" style="endArrow=classic;html=1;rounded=0;" parent="1" edge="1">
          <mxGeometry width="50" height="50" relative="1" as="geometry">
            <mxPoint x="157.23153846153835" y="1110" as="sourcePoint" />
            <mxPoint x="362.76999999999975" y="1110" as="targetPoint" />
          </mxGeometry>
        </mxCell>
        <mxCell id="Ovzq4kMX_2dMPbxkBDg--71" value=" Cancels the account." style="text;whiteSpace=wrap;html=1;" parent="1" vertex="1">
          <mxGeometry x="200" y="1080" width="150" height="40" as="geometry" />
        </mxCell>
        <mxCell id="Ovzq4kMX_2dMPbxkBDg--72" value="Updates account status to &quot;Canceled&quot;" style="text;whiteSpace=wrap;html=1;" parent="1" vertex="1">
          <mxGeometry x="370" y="1100" width="240" height="40" as="geometry" />
        </mxCell>
        <mxCell id="Ovzq4kMX_2dMPbxkBDg--73" value="" style="endArrow=classic;html=1;rounded=0;" parent="1" edge="1">
          <mxGeometry width="50" height="50" relative="1" as="geometry">
            <mxPoint x="365.00153846153836" y="1120" as="sourcePoint" />
            <mxPoint x="585" y="1120" as="targetPoint" />
          </mxGeometry>
        </mxCell>
        <mxCell id="bc_I020dnGh8QTCdxT3M-5" value="" style="rounded=0;whiteSpace=wrap;html=1;strokeColor=#FFFFFF;" parent="1" vertex="1">
          <mxGeometry x="100" y="260" width="120" height="60" as="geometry" />
        </mxCell>
        <mxCell id="bc_I020dnGh8QTCdxT3M-6" value="" style="rounded=0;whiteSpace=wrap;html=1;strokeColor=#FFFFFF;" parent="1" vertex="1">
          <mxGeometry x="305" y="260" width="120" height="60" as="geometry" />
        </mxCell>
        <mxCell id="bc_I020dnGh8QTCdxT3M-7" value="" style="rounded=0;whiteSpace=wrap;html=1;strokeColor=#FFFFFF;" parent="1" vertex="1">
          <mxGeometry x="530" y="260" width="120" height="60" as="geometry" />
        </mxCell>
        <mxCell id="bc_I020dnGh8QTCdxT3M-1" value="&amp;lt;&amp;lt;Interface&amp;gt;&amp;gt;&lt;div&gt;inspect tyre&lt;/div&gt;" style="shape=umlBoundary;whiteSpace=wrap;html=1;" parent="1" vertex="1">
          <mxGeometry x="100" y="250" width="100" height="80" as="geometry" />
        </mxCell>
        <mxCell id="bc_I020dnGh8QTCdxT3M-2" value="&amp;lt;&amp;lt;Controller&amp;gt;&amp;gt;&lt;div&gt;inspect tyre&lt;/div&gt;" style="ellipse;shape=umlControl;whiteSpace=wrap;html=1;" parent="1" vertex="1">
          <mxGeometry x="320" y="240" width="80" height="90" as="geometry" />
        </mxCell>
        <mxCell id="bc_I020dnGh8QTCdxT3M-3" value="&amp;lt;&amp;lt;Entity&amp;gt;&amp;gt;&lt;div&gt;inspect tyre&lt;/div&gt;" style="ellipse;shape=umlEntity;whiteSpace=wrap;html=1;" parent="1" vertex="1">
          <mxGeometry x="545" y="240" width="90" height="90" as="geometry" />
        </mxCell>
      </root>
    </mxGraphModel>
  </diagram>
</mxfile>
